<?xml version="1.0" encoding="UTF-8"?>
<svg version="1.1" xmlns="http://www.w3.org/2000/svg" width="1200" height="600">
<path d="M0 0 C0.67789581 -0.00067474 1.35579163 -0.00134949 2.05422974 -0.00204468 C33.34854595 0.04753103 60.94842699 10.56753283 83.8125 32.25 C79.28258204 37.68733055 74.46955784 42.71458931 69.4375 47.6875 C68.33341797 48.78481445 68.33341797 48.78481445 67.20703125 49.90429688 C65.41113926 51.68852723 63.61294015 53.47036124 61.8125 55.25 C61.2959082 54.85820557 60.77931641 54.46641113 60.24707031 54.06274414 C38.75700607 37.84058507 15.64295761 30.0030902 -11.3671875 33.74609375 C-29.61563306 37.10365598 -45.05224633 45.13735434 -58.1875 58.25 C-58.88488281 58.93578125 -59.58226562 59.6215625 -60.30078125 60.328125 C-69.66127249 70.14300902 -75.41614374 82.34260627 -79.1875 95.25 C-79.37296387 95.87946533 -79.55842773 96.50893066 -79.74951172 97.1574707 C-85.59667613 119.59420374 -81.48467084 144.66679294 -70.21777344 164.53759766 C-67.88737387 168.41092053 -65.14321774 171.84465936 -62.1875 175.25 C-61.445 176.24 -60.7025 177.23 -59.9375 178.25 C-50.24912729 189.60013243 -35.46502083 198.21635076 -21.1875 202.25 C-20.59549805 202.42515137 -20.00349609 202.60030273 -19.39355469 202.78076172 C-12.04044858 204.71116733 -4.62018822 204.64522605 2.9375 204.625 C3.62814545 204.62512085 4.31879089 204.6252417 5.03036499 204.62536621 C15.2038251 204.59995214 24.24363562 203.99660856 33.8125 200.25 C34.68519531 199.97285156 35.55789063 199.69570312 36.45703125 199.41015625 C44.39525175 196.69741003 52.66159671 191.45637193 58.56640625 185.47265625 C59.8125 184.25 59.8125 184.25 61.8125 184.25 C61.8125 183.59 61.8125 182.93 61.8125 182.25 C62.51375 181.59 63.215 180.93 63.9375 180.25 C74.50155905 169.9843607 77.67079944 155.17105365 79.8125 141.25 C54.7325 141.25 29.6525 141.25 3.8125 141.25 C3.8125 130.69 3.8125 120.13 3.8125 109.25 C17.87668001 109.2274518 31.94084812 109.20908655 46.00504208 109.19818783 C52.53486233 109.1929583 59.06466963 109.18585939 65.59448242 109.17456055 C71.89031159 109.16373415 78.18612826 109.15772369 84.48196602 109.15512276 C86.88984944 109.15326806 89.29773214 109.1496466 91.70561028 109.14426994 C95.06539286 109.1370628 98.4251231 109.13600892 101.78491211 109.13647461 C102.79119659 109.13287933 103.79748108 109.12928406 104.83425903 109.12557983 C106.19941399 109.12764183 106.19941399 109.12764183 107.59214783 109.12974548 C108.78540884 109.12836279 108.78540884 109.12836279 110.00277615 109.12695217 C111.8125 109.25 111.8125 109.25 112.8125 110.25 C117.21101991 137.35860852 112.24902112 168.6946941 96.71484375 191.70703125 C93.37009196 196.1781471 89.66880833 200.2189722 85.8125 204.25 C85.03648437 205.12398437 84.26046875 205.99796875 83.4609375 206.8984375 C71.58263659 219.73288647 56.3812192 228.08596087 39.8125 233.25 C38.91015625 233.56324219 38.0078125 233.87648437 37.078125 234.19921875 C7.63121983 243.5728454 -27.14672625 238.11104612 -54.1875 224.25 C-58.02488582 222.12537408 -61.61789889 219.79676316 -65.1875 217.25 C-66.21230469 216.52167969 -67.23710937 215.79335937 -68.29296875 215.04296875 C-91.85323438 197.83607299 -107.47351008 174.31606664 -115.1875 146.25 C-115.5278125 145.01507813 -115.868125 143.78015625 -116.21875 142.5078125 C-120.29232515 124.66706206 -120.21623941 104.5873065 -114.1875 87.25 C-113.86604004 86.27595215 -113.86604004 86.27595215 -113.53808594 85.28222656 C-106.84048326 65.07242982 -96.01383925 48.49575479 -81.1875 33.25 C-80.43082031 32.46753906 -79.67414063 31.68507813 -78.89453125 30.87890625 C-62.7796124 15.31871782 -41.56129621 6.79438297 -20.13183594 1.71142578 C-18.85800113 1.40912194 -17.59138919 1.07411391 -16.33569336 0.70361328 C-11.02838514 -0.41707983 -5.40758239 0.00478353 0 0 Z " fill="#4888F4" transform="translate(244.1875,12.75)"/>
<path d="M0 0 C2.42716271 1.92423711 4.71027232 3.90937908 7 6 C7.06058594 5.21753906 7.12117187 4.43507813 7.18359375 3.62890625 C7.30927734 2.11103516 7.30927734 2.11103516 7.4375 0.5625 C7.55931641 -0.95150391 7.55931641 -0.95150391 7.68359375 -2.49609375 C8 -5 8 -5 9 -6 C11.20650656 -6.10012401 13.41622386 -6.1308118 15.625 -6.1328125 C16.28709473 -6.13376923 16.94918945 -6.13472595 17.63134766 -6.13571167 C19.03352961 -6.13639326 20.4357147 -6.13454042 21.83789062 -6.13037109 C23.99095713 -6.12502246 26.14381502 -6.1303167 28.296875 -6.13671875 C29.65625046 -6.13605796 31.0156258 -6.13477679 32.375 -6.1328125 C34.24285156 -6.13112061 34.24285156 -6.13112061 36.1484375 -6.12939453 C39 -6 39 -6 40 -5 C40.1031071 -3.12741485 40.13522033 -1.25090262 40.14044189 0.62451172 C40.14615204 1.84661346 40.15186218 3.06871521 40.15774536 4.32785034 C40.15899095 5.69512929 40.160116 7.06240836 40.16113281 8.4296875 C40.16575923 9.86036304 40.17078365 11.29103735 40.17617798 12.72171021 C40.18933747 16.62349397 40.19575602 20.52526048 40.20018864 24.42706299 C40.203119 26.86999747 40.20722416 29.31292725 40.21169281 31.75585938 C40.22538879 39.41306665 40.23504016 47.07026317 40.2388947 54.72748184 C40.24335432 63.53750876 40.26079495 72.34737888 40.2898953 81.15735817 C40.31163787 87.97967144 40.32160594 94.80194107 40.32293582 101.62428856 C40.32397666 105.69097286 40.32972637 109.75751022 40.34775543 113.82415771 C40.46359855 141.56278229 40.23016691 170.45568789 19.9921875 192.1328125 C5.3934638 205.81553785 -12.14400473 211.608652 -31.875 211.4375 C-33.72653687 211.42505249 -33.72653687 211.42505249 -35.61547852 211.41235352 C-53.54932669 211.07921335 -68.42921826 204.88416451 -82 193 C-82.99580078 192.14535156 -82.99580078 192.14535156 -84.01171875 191.2734375 C-88.37854934 187.24119708 -91.70629218 182.76560146 -94.9375 177.8125 C-95.32744141 177.21816162 -95.71738281 176.62382324 -96.11914062 176.01147461 C-98.22755173 172.65953317 -99.34403877 169.87680923 -100 166 C-96.19322741 164.42897511 -92.38461236 162.8625157 -88.57421875 161.30029297 C-87.27780317 160.76802214 -85.98190106 160.23449895 -84.68652344 159.69970703 C-82.82622051 158.93194036 -80.96391837 158.16902341 -79.1015625 157.40625 C-77.42054443 156.71499023 -77.42054443 156.71499023 -75.70556641 156.00976562 C-73 155 -73 155 -71 155 C-70.70867188 155.56847656 -70.41734375 156.13695312 -70.1171875 156.72265625 C-63.82794912 168.56936627 -55.9025863 175.84492984 -43 180 C-32.98379663 183.01540438 -20.69892873 181.40099459 -11.4609375 176.7109375 C-1.62186997 170.55740697 3.49331081 162.21070793 6.57617188 151.14990234 C7.48998004 146.51453671 7.48466005 141.77265944 7.625 137.0625 C7.66367187 135.99708984 7.70234375 134.93167969 7.7421875 133.83398438 C7.83586146 131.22282266 7.92158335 128.61165696 8 126 C6.87464844 126.88751953 6.87464844 126.88751953 5.7265625 127.79296875 C-9.23191228 139.34151414 -24.35980533 144.80019236 -43.5 142.4375 C-64.19966271 138.56432891 -81.82152273 127.17129204 -93.78417969 109.82543945 C-105.43870664 92.01059205 -109.47037643 70.97615245 -105.47021484 50.04248047 C-100.90552334 30.21474987 -88.66332661 12.02870057 -71.671875 0.80078125 C-49.8578596 -12.50037374 -21.55549968 -15.62103707 0 0 Z M-60.2890625 32.29296875 C-69.82958581 43.53077617 -73.4328572 55.83196794 -72.9375 70.4375 C-71.78481003 83.51919082 -66.67372413 93.89267077 -57.125 102.75 C-47.28005566 110.98224869 -36.63314869 112.87612441 -24 112 C-15.24596339 110.62828486 -6.80731515 106.26560309 -0.890625 99.63671875 C8.77743629 86.35346361 11.98409423 72.0206184 9.5 55.71875 C6.66327656 43.21137849 0.67133592 32.25324948 -10.1796875 25.02734375 C-26.51853977 15.80606017 -47.13743991 19.11890312 -60.2890625 32.29296875 Z " fill="#4888F4" transform="translate(813,108)"/>
<path d="M0 0 C7.92 0 15.84 0 24 0 C25.96191589 5.88574766 27.82174373 11.70720182 29.453125 17.6796875 C29.67643494 18.49075958 29.89974487 19.30183167 30.12982178 20.13748169 C30.60156681 21.85321078 31.07210977 23.56927079 31.54150391 25.28564453 C32.23145422 27.80722036 32.92593304 30.32751261 33.62109375 32.84765625 C36.25223385 42.41824044 38.79208265 52.00960395 41.26953125 61.62109375 C45.3415929 77.41538425 49.58166667 93.16361325 53.82476807 108.91259766 C54.86521082 112.77547069 55.90421272 116.63873126 56.94335938 120.50195312 C58.96088129 128.00166813 60.97991553 135.50097477 63 143 C64.70341088 140.44488368 65.55987525 138.69185585 66.50436401 135.84767151 C66.78741394 135.00264572 67.07046387 134.15761993 67.36209106 133.2869873 C67.66654144 132.36285034 67.97099182 131.43871338 68.28466797 130.48657227 C68.61015625 129.5105455 68.93564453 128.53451874 69.27099609 127.52891541 C70.34899787 124.29281595 71.42059845 121.05463427 72.4921875 117.81640625 C73.24164152 115.56244545 73.99149463 113.30861732 74.74172974 111.05491638 C76.72022131 105.10797333 78.69330927 99.15925097 80.6652832 93.21014404 C82.66037422 87.19437087 84.66044865 81.18025543 86.66015625 75.16601562 C89.26005125 67.34518504 91.85862224 59.52391918 94.45343208 51.7013998 C95.10933723 49.72447221 95.76561622 47.74766859 96.4223156 45.77100468 C97.73365821 41.82334906 99.04325558 37.87529719 100.33404541 33.92086792 C100.69319031 32.82541656 101.05233521 31.72996521 101.42236328 30.60131836 C101.71200958 29.71012802 102.00165588 28.81893768 102.30007935 27.90074158 C103 26 103 26 104 25 C105.63472882 24.91299658 107.27314055 24.89298937 108.91015625 24.90234375 C109.89951172 24.90556641 110.88886719 24.90878906 111.90820312 24.91210938 C112.94912109 24.92048828 113.99003906 24.92886719 115.0625 24.9375 C116.62967773 24.94426758 116.62967773 24.94426758 118.22851562 24.95117188 C120.8190666 24.96300087 123.40950559 24.97948311 126 25 C152.32801819 103.98405457 152.32801819 103.98405457 153.30663967 106.92113972 C153.93973229 108.81961354 154.57378035 110.71776906 155.20885563 112.61558056 C156.81726662 117.42605226 158.40564875 122.24191885 159.96432495 127.0687561 C160.2820156 128.04438664 160.59970625 129.02001719 160.92702389 130.02521229 C161.53302561 131.88784779 162.13313978 133.752412 162.72654819 135.61909771 C162.99616336 136.44405648 163.26577852 137.26901525 163.54356384 138.11897278 C163.77744781 138.84680875 164.01133177 139.57464472 164.25230312 140.32453632 C164.87837022 142.20357481 164.87837022 142.20357481 167 143 C167.10213806 142.37615417 167.20427612 141.75230835 167.30950928 141.10955811 C168.69076118 133.07608049 170.61625818 125.21989891 172.640625 117.328125 C173.00372466 115.90101802 173.36648851 114.47382557 173.72894287 113.04655457 C174.69794283 109.23466831 175.67147925 105.42395484 176.64599609 101.6134758 C177.65973927 97.64668446 178.66953498 93.67888856 179.6796875 89.71118164 C181.11750833 84.06511197 182.55673614 78.41940429 183.99764252 72.77412128 C186.25183842 63.94191666 188.49651324 55.1073456 190.73357391 46.27078629 C191.85351881 41.8477794 192.97518416 37.42520834 194.09655762 33.00256348 C194.69588473 30.63756572 195.29460507 28.27241411 195.8927002 25.90710449 C196.71802018 22.64456052 197.54614909 19.38274218 198.375 16.12109375 C198.61377869 15.17437302 198.85255737 14.22765228 199.09857178 13.25224304 C199.43263031 11.94100212 199.43263031 11.94100212 199.7734375 10.60327148 C200.05840088 9.47887917 200.05840088 9.47887917 200.34912109 8.33177185 C201.13268886 5.52464253 202.07837353 2.7648794 203 0 C210.92 0 218.84 0 227 0 C224.27167823 11.80445534 221.33950544 23.52843464 218.21875 35.234375 C217.76361084 36.94872733 217.30868042 38.66313509 216.85394287 40.37759399 C215.65261182 44.90446767 214.44835857 49.43055879 213.24342346 53.9564743 C211.99235298 58.65756019 210.74390807 63.35934332 209.49511719 68.06103516 C207.0846078 77.1347385 204.67092722 86.2075954 202.25610352 95.28015137 C201.15633046 99.41215882 200.05744319 103.54440079 198.95898438 107.67675781 C195.86856979 119.30244463 192.76945939 130.92574904 189.65692139 142.54553223 C188.95788588 145.1573518 188.26032232 147.7695616 187.56298828 150.38183594 C186.3739536 154.83513953 185.18132392 159.28746548 183.98596191 163.73907471 C183.54252563 165.39237589 183.10019528 167.04597415 182.65905762 168.69989014 C182.06366852 170.93100992 181.46406724 173.16095345 180.86328125 175.390625 C180.52594971 176.64907227 180.18861816 177.90751953 179.84106445 179.20410156 C179 182 179 182 178 183 C176.29227642 183.08713831 174.58101351 183.10700007 172.87109375 183.09765625 C171.31938477 183.09282227 171.31938477 183.09282227 169.73632812 183.08789062 C168.64771484 183.07951172 167.55910156 183.07113281 166.4375 183.0625 C164.7987793 183.05573242 164.7987793 183.05573242 163.12695312 183.04882812 C160.41791241 183.03699825 157.70899178 183.01967721 155 183 C151.87416597 175.50761971 149.23432469 167.91012224 146.7265625 160.19140625 C146.12536591 158.35431091 146.12536591 158.35431091 145.51202393 156.48010254 C144.43476758 153.18800062 143.3615407 149.8945986 142.28914642 146.60091019 C141.17446166 143.17969961 140.0559943 139.75972596 138.93798828 136.33959961 C136.493427 128.85883784 134.0543806 121.37628535 131.61679077 113.89324951 C130.65438668 110.93913419 129.69142764 107.9851998 128.72851562 105.03125 C126.19642248 97.26255065 123.66478677 89.49370485 121.13916016 81.72290039 C120.7353714 80.48062683 120.7353714 80.48062683 120.32342529 79.21325684 C119.83219308 77.7016111 119.34116525 76.18989891 118.85040283 74.67810059 C117.58375204 70.7796794 116.30155968 66.88690643 115 63 C113.24495921 65.63256118 112.42423899 67.40929349 111.49462891 70.35913086 C111.21272705 71.24509445 110.9308252 72.13105804 110.64038086 73.04386902 C110.3388208 74.00779068 110.03726074 74.97171234 109.7265625 75.96484375 C109.40679443 76.97287552 109.08702637 77.98090729 108.75756836 79.01948547 C108.06880987 81.19153782 107.38205476 83.36422625 106.69708252 85.53747559 C104.89220658 91.26149604 103.07106833 96.98033296 101.25 102.69921875 C100.88629303 103.84222443 100.52258606 104.9852301 100.14785767 106.16287231 C95.92144532 119.4220304 91.51735786 132.61980796 87.07783508 145.80880737 C85.39407253 150.81394668 83.73049016 155.82554663 82.07421875 160.83984375 C81.37624033 162.94929962 80.67808506 165.0586969 79.97991943 167.16809082 C79.53922007 168.50151369 79.09946317 169.83524846 78.66070557 171.16931152 C78.06424575 172.98224839 77.46387563 174.79389739 76.86328125 176.60546875 C76.52594971 177.62793701 76.18861816 178.65040527 75.84106445 179.70385742 C75 182 75 182 74 183 C72.29227642 183.08713831 70.58101351 183.10700007 68.87109375 183.09765625 C67.31938477 183.09282227 67.31938477 183.09282227 65.73632812 183.08789062 C64.64771484 183.07951172 63.55910156 183.07113281 62.4375 183.0625 C60.7987793 183.05573242 60.7987793 183.05573242 59.12695312 183.04882812 C56.41791505 183.03699826 53.70898401 183.02051543 51 183 C48.36448329 175.38325908 46.17717792 167.67001834 44.03515625 159.90234375 C43.64593513 158.49772965 43.25649942 157.09317501 42.86686707 155.68867493 C42.03257961 152.67966152 41.1997374 149.67025334 40.36804199 146.66052246 C39.04628514 141.87750197 37.72115254 137.09542074 36.39550781 132.31347656 C34.53806124 125.61213836 32.68189925 118.91044575 30.82666016 112.20849609 C26.95027887 98.20608951 23.06723654 84.2055323 19.18063831 70.20595837 C17.920179 65.66555786 16.66085126 61.12484577 15.40249729 56.58386135 C14.420254 53.04003798 13.4368642 49.49653337 12.453125 45.953125 C12.26589811 45.27841219 12.07867123 44.60369938 11.8857708 43.90854073 C9.83528826 36.52361598 7.76355929 29.14543126 5.64648438 21.77929688 C5.45747433 21.12116879 5.26846428 20.4630407 5.07372665 19.78496933 C4.17784322 16.66800012 3.27815896 13.552197 2.37335205 10.43780518 C2.06033142 9.35328064 1.74731079 8.2687561 1.42480469 7.15136719 C1.14852234 6.20042175 0.87223999 5.24947632 0.58758545 4.26971436 C0 2 0 2 0 0 Z " fill="#66696E" transform="translate(1,340)"/>
<path d="M0 0 C0.48726562 0.41636719 0.97453125 0.83273438 1.4765625 1.26171875 C1.4765625 1.92171875 1.4765625 2.58171875 1.4765625 3.26171875 C2.4665625 3.59171875 3.4565625 3.92171875 4.4765625 4.26171875 C4.4765625 4.92171875 4.4765625 5.58171875 4.4765625 6.26171875 C5.4665625 6.59171875 6.4565625 6.92171875 7.4765625 7.26171875 C7.4765625 7.92171875 7.4765625 8.58171875 7.4765625 9.26171875 C8.1365625 9.26171875 8.7965625 9.26171875 9.4765625 9.26171875 C23.57591704 25.68674002 28.77501556 47.04884309 27.4765625 68.26171875 C25.68597465 86.61308164 17.71267581 105.1089391 3.4765625 117.26171875 C2.8165625 117.26171875 2.1565625 117.26171875 1.4765625 117.26171875 C1.1465625 118.25171875 0.8165625 119.24171875 0.4765625 120.26171875 C-12.79101721 129.95881829 -28.03525977 136.29003977 -44.5234375 137.26171875 C-45.19246094 137.30296875 -45.86148438 137.34421875 -46.55078125 137.38671875 C-65.64254594 137.9555609 -85.81177284 131.73913527 -100.5234375 119.26171875 C-100.5234375 118.60171875 -100.5234375 117.94171875 -100.5234375 117.26171875 C-101.5134375 116.93171875 -102.5034375 116.60171875 -103.5234375 116.26171875 C-103.5234375 115.60171875 -103.5234375 114.94171875 -103.5234375 114.26171875 C-104.5134375 113.93171875 -105.5034375 113.60171875 -106.5234375 113.26171875 C-106.5234375 112.60171875 -106.5234375 111.94171875 -106.5234375 111.26171875 C-107.1834375 111.26171875 -107.8434375 111.26171875 -108.5234375 111.26171875 C-110.06506418 109.18703451 -111.46396907 107.13299615 -112.8359375 104.94921875 C-113.23893066 104.31129395 -113.64192383 103.67336914 -114.05712891 103.01611328 C-125.69986836 84.2555009 -129.20603153 62.84867733 -124.5234375 41.26171875 C-121.13992079 28.30272802 -114.35984953 16.30987504 -105.5234375 6.26171875 C-104.8634375 6.26171875 -104.2034375 6.26171875 -103.5234375 6.26171875 C-103.1934375 5.27171875 -102.8634375 4.28171875 -102.5234375 3.26171875 C-71.48054363 -22.00575301 -32.67347457 -21.68330585 0 0 Z M-80.5234375 27.26171875 C-89.889441 39.38348866 -93.45752364 51.13319401 -92.2734375 66.5078125 C-90.57932206 78.38174662 -85.19342999 90.22018458 -75.6484375 97.84765625 C-64.07764149 105.54734036 -52.81127739 108.17412796 -39.03515625 105.61328125 C-31.59962356 103.56872819 -26.08760941 100.58586756 -20.5234375 95.26171875 C-19.88664063 94.65328125 -19.24984375 94.04484375 -18.59375 93.41796875 C-9.07213491 83.44683535 -6.0349585 70.64880391 -6.34375 57.19921875 C-7.15084129 44.00503077 -12.57549299 32.13753497 -22.5234375 23.26171875 C-39.77727096 10.8421637 -65.55141613 10.3385563 -80.5234375 27.26171875 Z " fill="#FBBD08" transform="translate(664.5234375,113.73828125)"/>
<path d="M0 0 C2.37846125 1.84246998 4.67141974 3.62089046 6.7734375 5.7734375 C6.7734375 6.4334375 6.7734375 7.0934375 6.7734375 7.7734375 C7.7634375 8.1034375 8.7534375 8.4334375 9.7734375 8.7734375 C20.62321829 20.94585823 29.1072228 37.25686473 29.7734375 53.7734375 C29.825 54.92199219 29.8765625 56.07054687 29.9296875 57.25390625 C30.59171801 79.16629886 24.50688792 98.33912399 9.7734375 114.7734375 C-3.99377606 128.99028012 -22.42877598 137.60671712 -42.2265625 138.7734375 C-42.89558594 138.8146875 -43.56460938 138.8559375 -44.25390625 138.8984375 C-64.65275811 139.50622452 -85.02595176 132.60658069 -99.99633789 118.64013672 C-115.9204518 103.12634704 -123.68252824 83.88826171 -124.28173828 61.73339844 C-124.39323248 41.88743117 -117.25926668 23.37930146 -103.5078125 9.015625 C-75.25996903 -18.74852252 -32.80520328 -22.63797321 0 0 Z M-80.0703125 30.95703125 C-88.89194263 42.63821521 -91.41192449 56.08545627 -89.5390625 70.4609375 C-87.13955085 83.57932026 -81.3716904 93.31942705 -70.5625 101.26953125 C-60.03865991 108.04491325 -48.11979035 109.50412428 -35.89453125 107.125 C-24.70441172 103.76365472 -15.88041328 96.29119645 -9.75390625 86.39453125 C-3.5165672 74.77453227 -2.41753944 61.12314726 -5.4140625 48.3046875 C-9.29948927 36.20008871 -16.30398743 26.19433155 -27.51953125 19.9921875 C-45.83383899 11.74678488 -66.93850546 15.40474283 -80.0703125 30.95703125 Z " fill="#E94738" transform="translate(494.2265625,112.2265625)"/>
<path d="M0 0 C13.30965279 10.7713413 26.43189454 27.24424759 28.41308594 44.79980469 C21.37058712 48.46441408 14.22143491 51.60964798 6.85058594 54.54980469 C4.46984169 55.50941369 2.08967224 56.47044948 -0.29003906 57.43261719 C-1.25143547 57.82101273 -1.25143547 57.82101273 -2.23225403 58.21725464 C-11.31279828 61.89275384 -20.3532706 65.66566828 -29.39941406 69.42480469 C-43.4449897 75.25841962 -57.49865858 81.06981897 -71.58691406 86.79980469 C-69.81050499 94.7936455 -64.02676088 100.10262248 -57.58691406 104.79980469 C-54.3384945 106.45968525 -51.07294587 107.73412657 -47.58691406 108.79980469 C-46.96300781 108.99058594 -46.33910156 109.18136719 -45.69628906 109.37792969 C-34.0514919 111.70688912 -21.91596177 109.32354783 -11.83691406 103.17480469 C-6.68076455 99.46314233 -2.64157398 94.65005982 1.41308594 89.79980469 C5.1301891 91.15624171 8.21850564 92.84640694 11.49511719 95.05761719 C12.42646484 95.6828125 13.3578125 96.30800781 14.31738281 96.95214844 C15.27708984 97.603125 16.23679687 98.25410156 17.22558594 98.92480469 C18.20462891 99.58351563 19.18367188 100.24222656 20.19238281 100.92089844 C22.6021194 102.54306258 25.00887088 104.16947315 27.41308594 105.79980469 C26.09608369 109.23467938 24.8380015 111.82971408 22.41308594 114.61230469 C21.89746094 115.216875 21.38183594 115.82144531 20.85058594 116.44433594 C19.41308594 117.79980469 19.41308594 117.79980469 17.41308594 117.79980469 C17.08308594 118.78980469 16.75308594 119.77980469 16.41308594 120.79980469 C3.09182362 132.67359538 -13.66132599 140.09140516 -31.58691406 140.79980469 C-32.27527344 140.83976563 -32.96363281 140.87972656 -33.67285156 140.92089844 C-55.2095098 141.60142481 -74.59884394 133.91232539 -90.24316406 119.23339844 C-106.1262648 102.7414455 -112.22456745 82.76628225 -112.06201172 60.36865234 C-111.8317799 51.62111533 -110.67410745 44.03906835 -107.58691406 35.79980469 C-107.2246875 34.75050781 -106.86246094 33.70121094 -106.48925781 32.62011719 C-103.66711708 25.10078628 -99.55526775 19.06647302 -94.58691406 12.79980469 C-93.80316406 11.74792969 -93.01941406 10.69605469 -92.21191406 9.61230469 C-68.95973815 -15.30074093 -27.70381348 -20.95260724 0 0 Z M-66.83691406 29.42480469 C-74.92534845 38.00443954 -78.79280094 49.12601885 -78.58691406 60.79980469 C-72.56275574 58.86793775 -66.68858096 56.70848332 -60.84472656 54.28808594 C-60.03687714 53.95616745 -59.22902771 53.62424896 -58.396698 53.28227234 C-55.83394728 52.22839965 -53.27294687 51.17034411 -50.71191406 50.11230469 C-49.034936 49.42259554 -47.3578533 48.73314077 -45.68066406 48.04394531 C-41.50138507 46.32506222 -37.32675441 44.59518992 -33.15344238 42.86187744 C-30.48156252 41.75620844 -27.80540217 40.66133672 -25.12890625 39.56689453 C-23.38301842 38.84664401 -21.6372461 38.12611343 -19.89160156 37.40527344 C-19.07160675 37.07263992 -18.25161194 36.74000641 -17.4067688 36.39729309 C-13.27363315 34.96652219 -13.27363315 34.96652219 -10.58691406 31.79980469 C-15.72153922 23.61649584 -20.92493374 20.25588739 -30.33691406 17.98730469 C-44.25409863 15.0026952 -56.53499279 20.03991049 -66.83691406 29.42480469 Z " fill="#E94739" transform="translate(1038.5869140625,110.2001953125)"/>
<path d="M0 0 C13.3061322 11.17715105 21.97573132 26.89089833 24.4765625 44.0703125 C26.1163628 62.93987207 23.03976784 81.41417458 11.375 96.8515625 C9.16948757 99.37660147 6.88019008 101.73378126 4.4765625 104.0703125 C3.68121094 104.8746875 2.88585937 105.6790625 2.06640625 106.5078125 C-3.58041839 111.94880993 -9.17689442 115.36426335 -16.5234375 118.0703125 C-17.46574219 118.42738281 -18.40804687 118.78445313 -19.37890625 119.15234375 C-34.65756944 123.61257462 -50.20547309 120.7745573 -63.89453125 113.30078125 C-69.65797236 109.92456427 -73.84029594 105.59502483 -77.5234375 100.0703125 C-77.5234375 123.8303125 -77.5234375 147.5903125 -77.5234375 172.0703125 C-85.1134375 172.0703125 -92.7034375 172.0703125 -100.5234375 172.0703125 C-102.43286976 170.16088024 -101.64969437 166.72523482 -101.65042114 164.19921875 C-101.65198113 163.47219757 -101.65354112 162.74517639 -101.65514839 161.99612427 C-101.65916097 159.54166685 -101.65596776 157.08727046 -101.65283203 154.6328125 C-101.65418596 152.88061486 -101.65596584 151.12841751 -101.65814209 149.3762207 C-101.66271745 144.60363066 -101.66092644 139.83106212 -101.657763 135.05847168 C-101.65523993 130.07543884 -101.65757679 125.09240791 -101.65914917 120.109375 C-101.66097102 111.73957995 -101.65856415 103.36979371 -101.65380859 95 C-101.64836594 85.30870864 -101.65012859 75.61743831 -101.655635 65.92614746 C-101.66016569 57.62129536 -101.66081689 49.31644961 -101.65819633 41.01159668 C-101.65663331 36.04451146 -101.65644046 31.07743615 -101.65973282 26.11035156 C-101.6626109 21.44175222 -101.66063701 16.77318012 -101.65483856 12.10458374 C-101.65351062 10.38601731 -101.65390565 8.6674486 -101.65610123 6.94888306 C-101.65881141 4.61302596 -101.65543325 2.27725761 -101.65042114 -0.05859375 C-101.65004412 -1.36900635 -101.64966709 -2.67941895 -101.64927864 -4.02954102 C-101.5234375 -6.9296875 -101.5234375 -6.9296875 -100.5234375 -7.9296875 C-98.88870868 -8.01669092 -97.25029695 -8.03669813 -95.61328125 -8.02734375 C-94.62392578 -8.02412109 -93.63457031 -8.02089844 -92.61523438 -8.01757812 C-91.57431641 -8.00919922 -90.53339844 -8.00082031 -89.4609375 -7.9921875 C-87.89375977 -7.98541992 -87.89375977 -7.98541992 -86.29492188 -7.97851562 C-83.70440296 -7.96668677 -81.11391328 -7.94875069 -78.5234375 -7.9296875 C-78.0284375 -0.0096875 -78.0284375 -0.0096875 -77.5234375 8.0703125 C-76.5953125 6.8946875 -75.6671875 5.7190625 -74.7109375 4.5078125 C-67.69307261 -3.47024316 -58.60501675 -7.98616071 -48.5234375 -10.9296875 C-47.71261719 -11.166875 -46.90179687 -11.4040625 -46.06640625 -11.6484375 C-29.67852475 -15.67260226 -13.03097628 -9.96486421 0 0 Z M-69.51171875 24.359375 C-77.91258408 35.68015275 -79.56391685 49.81135244 -77.8984375 63.5703125 C-75.63194156 75.92912999 -70.74416613 85.55642461 -60.3984375 93.0078125 C-51.18803625 99.23145424 -40.72725747 100.47941113 -29.83984375 98.609375 C-19.64005834 95.90428371 -11.5411811 89.6839455 -5.5234375 81.0703125 C1.48826725 67.55146735 2.79286694 51.45012208 -1.4765625 36.7890625 C-4.12422155 29.91305243 -7.90649184 23.88483735 -13.5234375 19.0703125 C-14.06226563 18.57917969 -14.60109375 18.08804687 -15.15625 17.58203125 C-21.65820379 12.10025849 -30.13272261 9.03581958 -38.6484375 8.6328125 C-51.42577184 10.07541476 -61.1839612 14.44745415 -69.51171875 24.359375 Z " fill="#66696E" transform="translate(788.5234375,405.9296875)"/>
<path d="M0 0 C13.95457107 13.36458001 19.55479241 32.18402607 20.36328125 51.0859375 C20.37267193 52.87016656 20.32131312 54.65467192 20.25 56.4375 C16.82298019 58.15100991 12.88900197 57.56608983 9.11865234 57.55102539 C8.17226395 57.55117142 7.22587555 57.55131744 6.25080872 57.5514679 C3.11249525 57.55076942 -0.02575937 57.54298002 -3.1640625 57.53515625 C-5.33596769 57.53329184 -7.50787329 57.53186805 -9.67977905 57.53086853 C-15.40414587 57.52704516 -21.12848742 57.51721639 -26.85284424 57.50616455 C-32.69095518 57.49594657 -38.5290702 57.49137008 -44.3671875 57.48632812 C-55.82813611 57.47559398 -67.28906596 57.4585197 -78.75 57.4375 C-78.45907621 59.3394615 -78.16075194 61.24029184 -77.859375 63.140625 C-77.69405273 64.19926758 -77.52873047 65.25791016 -77.35839844 66.34863281 C-75.31390986 76.72859648 -69.29056377 85.19628673 -60.6796875 91.19140625 C-50.88257279 97.51788316 -40.09159708 98.72231973 -28.8125 96.3125 C-17.59664906 93.26517446 -10.10388802 85.96833203 -3.75 76.4375 C1.20998472 77.05382946 5.18671966 79.23585629 9.5625 81.5 C10.30306641 81.87705078 11.04363281 82.25410156 11.80664062 82.64257812 C13.62387522 83.56878157 15.43732404 84.50240629 17.25 85.4375 C9.9811166 101.16392001 -2.51842401 109.92256203 -18.16796875 116.4453125 C-23.62705231 118.43570403 -28.96420998 119.1508974 -34.75 119.4375 C-35.54148437 119.47875 -36.33296875 119.52 -37.1484375 119.5625 C-53.04123039 119.97396389 -68.5765364 115.92621011 -80.375 104.9375 C-82.20948793 103.13934748 -83.9793504 101.30031275 -85.75 99.4375 C-86.34039063 98.87675781 -86.93078125 98.31601562 -87.5390625 97.73828125 C-99.96389396 85.08089947 -103.28181026 66.49521242 -103.24267578 49.58520508 C-102.78735904 31.39940179 -95.82943097 14.07932328 -82.57421875 1.34765625 C-58.79672629 -18.92742325 -24.56051124 -19.87013583 0 0 Z M-66.234375 16.765625 C-72.17919833 23.32331671 -74.64232691 28.57611525 -75.75 37.4375 C-52.98 37.4375 -30.21 37.4375 -6.75 37.4375 C-5.24753867 32.93011601 -6.98473243 29.71091857 -8.75 25.4375 C-13.1949679 17.20607796 -19.92672996 11.9966174 -28.75390625 9.15625 C-42.16584961 5.93878249 -55.61352901 7.31190494 -66.234375 16.765625 Z " fill="#66696E" transform="translate(1179.75,407.5625)"/>
<path d="M0 0 C0.59425781 0.52078125 1.18851563 1.0415625 1.80078125 1.578125 C2.40535156 2.07828125 3.00992188 2.5784375 3.6328125 3.09375 C12.73999381 11.26838769 17.01770751 23.72181359 17.9703598 35.71255875 C18.22874341 41.46254394 18.17112555 47.2146676 18.12890625 52.96875 C18.1258421 54.80865321 18.12397097 56.64855875 18.12322998 58.48846436 C18.11866097 62.31417943 18.10435567 66.13967999 18.08203125 69.96533203 C18.05351015 74.87824626 18.04279204 79.79099411 18.03834915 84.70398331 C18.03420652 88.48878651 18.0244027 92.27355594 18.01247406 96.05834198 C18.00676815 97.87171916 18.0020105 99.68509958 17.99820709 101.49848175 C17.99137339 104.01629964 17.97776136 106.5339826 17.96191406 109.05175781 C17.9607962 109.80385025 17.95967834 110.55594269 17.95852661 111.33082581 C17.91548775 116.4634185 17.91548775 116.4634185 16.80078125 117.578125 C15.25122566 117.67712023 13.69724452 117.70892024 12.14453125 117.7109375 C10.73494141 117.71287109 10.73494141 117.71287109 9.296875 117.71484375 C8.30816406 117.71097656 7.31945312 117.70710937 6.30078125 117.703125 C5.31207031 117.70699219 4.32335937 117.71085938 3.3046875 117.71484375 C2.36496094 117.71355469 1.42523437 117.71226562 0.45703125 117.7109375 C-0.41115234 117.70980957 -1.27933594 117.70868164 -2.17382812 117.70751953 C-4.19921875 117.578125 -4.19921875 117.578125 -5.19921875 116.578125 C-5.27241496 113.88157646 -5.29164412 111.21121042 -5.26171875 108.515625 C-5.25720703 107.75701172 -5.25269531 106.99839844 -5.24804688 106.21679688 C-5.23622555 104.33720629 -5.21828953 102.45765601 -5.19921875 100.578125 C-5.85921875 100.578125 -6.51921875 100.578125 -7.19921875 100.578125 C-7.57433594 101.43277344 -7.57433594 101.43277344 -7.95703125 102.3046875 C-13.0988859 111.71525167 -22.89333314 117.3671333 -32.87109375 120.38671875 C-45.57776803 123.24769355 -59.64502697 121.67828218 -71.19921875 115.578125 C-81.42508942 108.96831057 -89.40572307 100.14622185 -92.44921875 88.203125 C-94.56344565 77.0605778 -93.34201342 65.77076825 -86.94921875 56.203125 C-78.42809029 45.1132572 -67.63190872 39.96271047 -54.07421875 37.203125 C-52.84022339 36.95151611 -52.84022339 36.95151611 -51.58129883 36.69482422 C-42.13227392 34.95082301 -33.51108568 35.37604238 -24.13671875 37.328125 C-23.30333984 37.48539062 -22.46996094 37.64265625 -21.61132812 37.8046875 C-15.73967371 38.99272653 -10.57066129 40.93815776 -5.19921875 43.578125 C-5.48858727 34.08683745 -6.22987148 27.19115021 -12.51171875 19.890625 C-22.84364004 11.00036715 -31.61263902 9.74508811 -44.99707031 10.39160156 C-53.94796854 11.1497486 -60.17868763 16.24216742 -66.19921875 22.578125 C-66.52921875 23.238125 -66.85921875 23.898125 -67.19921875 24.578125 C-72.44803051 24.09154876 -76.20653015 21.31265102 -80.51171875 18.515625 C-81.25228516 18.04318359 -81.99285156 17.57074219 -82.75585938 17.08398438 C-84.57473094 15.92225351 -86.38758465 14.75111018 -88.19921875 13.578125 C-85.29811934 4.98059603 -77.56822985 -0.84776156 -69.85546875 -5.14453125 C-48.32178779 -15.49969842 -19.18503788 -15.72934783 0 0 Z M-64.63671875 67.203125 C-68.42232866 71.76236091 -68.55217189 76.03685851 -68.46875 81.79296875 C-67.97542266 86.89068464 -66.08982669 89.87302556 -62.328125 93.265625 C-55.42414235 98.69484387 -48.97421589 100.63473788 -40.19921875 100.578125 C-28.76014287 99.19111841 -18.85159453 93.6737135 -11.6328125 84.671875 C-7.04905289 77.9773378 -5.53519468 71.62474851 -5.19921875 63.578125 C-21.52396905 51.11976293 -50.6281207 51.46834899 -64.63671875 67.203125 Z " fill="#67696E" transform="translate(916.19921875,405.421875)"/>
<path d="M0 0 C7.59 0 15.18 0 23 0 C23.495 54.945 23.495 54.945 24 111 C28.27525885 107.33549242 32.29649677 103.83101003 36.25 99.8828125 C36.94270996 99.19153763 36.94270996 99.19153763 37.64941406 98.48629761 C38.61515943 97.52122562 39.57967197 96.55491842 40.54296875 95.58740234 C41.99369065 94.1313326 43.44966659 92.68067224 44.90625 91.23046875 C51.50578998 84.63732974 57.77817207 77.98933505 63.34765625 70.5 C68.22070315 64.3783054 72.76700917 58.87650033 80.71875 57.22998047 C89.44442317 56.32967098 98.30964372 57.05623158 107 58 C105.4819272 61.5747899 103.38425289 63.85811724 100.64208984 66.58496094 C99.29091568 67.93590851 99.29091568 67.93590851 97.91244507 69.31414795 C96.92871592 70.28766481 95.9448775 71.26107125 94.9609375 72.234375 C93.95444872 73.23713161 92.94840211 74.24033222 91.94277954 75.24395752 C89.30037853 77.87873813 86.65202572 80.50745611 84.00238037 83.13494873 C81.29743948 85.81939688 78.59818179 88.50954622 75.8984375 91.19921875 C70.60449826 96.47173618 65.30425717 101.73786057 60 107 C60.77871869 108.42373473 61.56018397 109.84596738 62.34277344 111.26757812 C62.77765076 112.05974731 63.21252808 112.8519165 63.6605835 113.66809082 C65.63810248 117.11092929 67.91659107 120.29242192 70.25 123.5 C76.87694367 132.75166307 83.26216806 142.16065257 89.64453125 151.58203125 C92.54333521 155.86090807 95.45755719 160.12856751 98.38671875 164.38671875 C99.07918701 165.39516846 99.77165527 166.40361816 100.48510742 167.44262695 C101.80150091 169.35843965 103.12056121 171.27242339 104.44262695 173.18432617 C105.32180786 174.46593628 105.32180786 174.46593628 106.21875 175.7734375 C106.73373047 176.52028809 107.24871094 177.26713867 107.77929688 178.03662109 C109 180 109 180 110 183 C101.66535742 185.69528243 92.4380034 187.43248945 84.04003906 184.18560791 C71.29310314 176.77748111 63.12298076 157.54981876 56.01025391 145.18652344 C52.2414199 138.63559814 48.15976257 132.30833035 44 126 C36.24260665 127.6010054 30.03326672 133.21951913 25.55322266 139.55126953 C19.85669781 152.19966783 22.35704836 169.44379073 23 183 C19.35418313 183.02887512 15.70839537 183.04675585 12.0625 183.0625 C11.02158203 183.07087891 9.98066406 183.07925781 8.90820312 183.08789062 C7.91884766 183.09111328 6.92949219 183.09433594 5.91015625 183.09765625 C4.99371338 183.10289307 4.07727051 183.10812988 3.13305664 183.11352539 C1 183 1 183 0 182 C-0.09763101 179.64712707 -0.12997445 177.32365314 -0.12025452 174.97032166 C-0.12110894 174.2262607 -0.12196337 173.48219975 -0.12284368 172.71559149 C-0.12450071 170.2035182 -0.1189735 167.69151058 -0.11352539 165.17944336 C-0.11324354 163.38621523 -0.11340121 161.59298698 -0.1139679 159.79975891 C-0.11425596 154.91566635 -0.10835786 150.03159813 -0.10139394 145.14751124 C-0.09516181 140.0492342 -0.09455671 134.95095666 -0.09336853 129.85267639 C-0.0902548 120.19122841 -0.08204084 110.52979168 -0.07201904 100.86834866 C-0.06085921 89.87216377 -0.05534778 78.87597837 -0.05032361 67.87978923 C-0.03985826 45.25318636 -0.02205765 22.62659428 0 0 Z " fill="#66696E" transform="translate(460,340)"/>
<path d="M0 0 C2.50382216 2.18378474 4.84507433 4.44642202 7.16015625 6.828125 C7.794375 7.44171875 8.42859375 8.0553125 9.08203125 8.6875 C21.30399031 21.34209478 25.4723308 39.36471186 25.54516602 56.42236328 C25.20624914 74.65059509 18.28844313 90.2043004 5.76171875 103.35546875 C-7.15595175 115.6330745 -23.40418919 121.29525189 -41.0625 120.96875 C-57.43025189 120.14000307 -71.86183204 115.30885464 -83.83984375 103.828125 C-84.53335938 103.17457031 -85.226875 102.52101563 -85.94140625 101.84765625 C-94.96633646 92.56138636 -100.64982447 80.51513326 -102.83984375 67.828125 C-103.06671875 66.52875 -103.29359375 65.229375 -103.52734375 63.890625 C-105.36072732 44.93265873 -101.76764547 26.6606064 -89.98828125 11.421875 C-67.89123233 -15.25528951 -28.25318907 -21.60766592 0 0 Z M-69.71484375 22.640625 C-78.73629317 33.89039406 -80.89934628 46.69038807 -79.83984375 60.828125 C-78.04279667 73.04242937 -73.45556587 83.49410954 -63.84375 91.48828125 C-54.4813422 98.28061632 -44.21605502 99.84943075 -32.83984375 98.828125 C-22.84228415 97.08941898 -13.7606541 92.0014456 -7.37109375 84.08984375 C1.18586396 71.45086795 2.61047254 57.04798947 0.53515625 42.203125 C-1.51358767 32.41468182 -7.28592976 23.33182984 -14.83984375 16.828125 C-33.10107736 5.21866407 -54.47570265 6.38115264 -69.71484375 22.640625 Z " fill="#66696D" transform="translate(329.83984375,406.171875)"/>
<path d="M0 0 C1.92283813 0.00616333 1.92283813 0.00616333 3.88452148 0.01245117 C4.90883522 0.0131385 4.90883522 0.0131385 5.95384216 0.01383972 C7.39714292 0.01686101 8.84044046 0.0247437 10.28369141 0.03710938 C12.50036077 0.05537662 14.71661281 0.057619 16.93334961 0.05737305 C27.79569055 0.09549524 27.79569055 0.09549524 28.94311523 1.24291992 C29.04106064 4.12548595 29.07303715 6.98409575 29.06336975 9.86708069 C29.06422418 10.78265084 29.0650786 11.698221 29.06595892 12.6415357 C29.06761653 15.73402498 29.06208777 18.82646096 29.05664062 21.91894531 C29.05635879 24.12596129 29.05651642 26.33297736 29.05708313 28.53999329 C29.05737124 34.55214717 29.05147235 40.56428129 29.04450917 46.57643056 C29.03827786 52.85185093 29.03767201 59.12727171 29.03648376 65.4026947 C29.03372407 75.94229469 29.02746857 86.48188817 29.01855469 97.02148438 C29.00938126 107.8792314 29.00230009 118.73697645 28.99804688 129.59472656 C28.99778415 130.26355085 28.99752143 130.93237513 28.99725074 131.62146682 C28.99594574 134.97662814 28.99468203 138.33178947 28.99343884 141.6869508 C28.98297295 169.53894576 28.96517192 197.39093194 28.94311523 225.24291992 C17.72311523 225.24291992 6.50311523 225.24291992 -5.05688477 225.24291992 C-5.10312462 196.20187872 -5.13884418 167.16084634 -5.16050911 138.11977577 C-5.16254889 135.43881858 -5.16463153 132.75786143 -5.16674805 130.0769043 C-5.16753498 129.07733059 -5.16753498 129.07733059 -5.16833781 128.05756347 C-5.17704899 117.25657089 -5.19282287 106.45559951 -5.21119036 95.65461953 C-5.2298696 84.57823054 -5.24084752 73.50185023 -5.24506176 62.42544591 C-5.24767573 56.2012997 -5.2538459 49.97720165 -5.26834488 43.75307083 C-5.28186756 37.90091491 -5.28611823 32.04882724 -5.28310013 26.19665718 C-5.28365268 24.04311694 -5.28766162 21.88957453 -5.29529572 19.73604774 C-5.30517389 16.80707031 -5.3028799 13.8783542 -5.2973938 10.94937134 C-5.30613232 9.65658766 -5.30613232 9.65658766 -5.31504738 8.33768713 C-5.27466165 0.41915888 -5.27466165 0.41915888 0 0 Z " fill="#3BAB57" transform="translate(881.056884765625,20.757080078125)"/>
<path d="M0 0 C6.2852835 4.6798605 11.92789335 10.29328669 15.46484375 17.3671875 C15.46484375 18.3571875 15.46484375 19.3471875 15.46484375 20.3671875 C12.53447498 21.73718951 9.59457461 23.08537302 6.65234375 24.4296875 C5.81896484 24.81962891 4.98558594 25.20957031 4.12695312 25.61132812 C3.32451172 25.97548828 2.52207031 26.33964844 1.6953125 26.71484375 C0.58772583 27.22543335 0.58772583 27.22543335 -0.54223633 27.74633789 C-2.53515625 28.3671875 -2.53515625 28.3671875 -5.53515625 27.3671875 C-6.89692206 25.38643723 -8.23108741 23.38639087 -9.53515625 21.3671875 C-10.19515625 21.0371875 -10.85515625 20.7071875 -11.53515625 20.3671875 C-11.53515625 19.7071875 -11.53515625 19.0471875 -11.53515625 18.3671875 C-13.19821465 17.69157002 -14.8661023 17.02785469 -16.53515625 16.3671875 C-17.72367188 15.85800781 -18.9121875 15.34882813 -20.13671875 14.82421875 C-24.75105728 13.10675309 -29.01832121 12.82823427 -33.91015625 12.8671875 C-35.16034546 12.87576782 -35.16034546 12.87576782 -36.43579102 12.88452148 C-42.97031942 13.07391886 -48.40674664 14.01680585 -53.53515625 18.3671875 C-56.56364122 21.6532498 -57.53515625 24.46087025 -57.53515625 28.9921875 C-56.24357292 33.35128125 -54.86186365 36.06371178 -50.78588867 38.34716797 C-44.16954089 41.36411708 -37.39757663 43.09216418 -30.34765625 44.8046875 C5.06297068 53.75313546 5.06297068 53.75313546 14.46484375 68.3671875 C18.34031454 76.57812561 20.12239208 85.10016489 17.76953125 93.99609375 C13.11727908 106.79956086 4.35739548 114.38632127 -7.6796875 120.11328125 C-21.1701241 126.0372623 -37.76769061 125.94733605 -51.6484375 121.33203125 C-58.18321782 118.74967206 -63.88340505 115.52116613 -69.53515625 111.3671875 C-70.40140625 110.7896875 -71.26765625 110.2121875 -72.16015625 109.6171875 C-77.31855682 104.73028169 -82.00307339 98.013905 -84.53515625 91.3671875 C-84.32958984 89.32543945 -84.32958984 89.32543945 -83.53515625 87.3671875 C-81.90869141 86.25463867 -81.90869141 86.25463867 -79.82421875 85.41015625 C-79.07398438 85.10271484 -78.32375 84.79527344 -77.55078125 84.47851562 C-76.761875 84.17365234 -75.97296875 83.86878906 -75.16015625 83.5546875 C-74.37898437 83.23048828 -73.5978125 82.90628906 -72.79296875 82.57226562 C-66.94021719 80.23216719 -66.94021719 80.23216719 -63.53515625 81.3671875 C-62.17578125 83.44140625 -62.17578125 83.44140625 -60.78515625 86.0546875 C-56.11082867 94.12538611 -49.61209332 99.028856 -40.75 101.95703125 C-30.4258564 103.8689097 -21.22058729 102.6926283 -12.22265625 97.4296875 C-7.92422337 94.22205632 -7.92422337 94.22205632 -6.21875 89.32421875 C-6.01393074 85.37979632 -6.36019602 82.76274976 -7.97265625 79.1171875 C-15.18318253 71.37906173 -25.1490921 69.6259243 -35.01025391 67.03955078 C-68.98879934 57.99130923 -68.98879934 57.99130923 -77.10546875 46.05859375 C-81.97762369 37.58104415 -83.07477912 28.56718855 -81.00390625 18.8828125 C-77.5470287 9.18852545 -70.87746023 1.8965949 -61.91015625 -2.8828125 C-42.12911174 -12.20177191 -18.6623235 -12.01980158 0 0 Z " fill="#67696E" transform="translate(653.53515625,402.6328125)"/>
<path d="M0 0 C7.13458317 5.93549356 12.81349951 13.56646024 16.44921875 22.12109375 C16.44921875 22.78109375 16.44921875 23.44109375 16.44921875 24.12109375 C13.32666932 25.4602196 10.20079517 26.79140033 7.07421875 28.12109375 C5.74003906 28.6934375 5.74003906 28.6934375 4.37890625 29.27734375 C3.10273437 29.81875 3.10273437 29.81875 1.80078125 30.37109375 C1.01525879 30.70625 0.22973633 31.04140625 -0.57958984 31.38671875 C-2.55078125 32.12109375 -2.55078125 32.12109375 -4.55078125 32.12109375 C-5.65356251 30.47288284 -6.68244436 28.7749875 -7.67578125 27.05859375 C-12.90947358 18.62170799 -19.02730519 12.95323559 -28.8125 10.5703125 C-40.53140307 8.64781057 -50.15970223 10.42555424 -60.67578125 15.68359375 C-68.66357564 22.45585421 -73.80350634 30.03139958 -76.55078125 40.12109375 C-76.72440186 40.73670166 -76.89802246 41.35230957 -77.0769043 41.98657227 C-80.05411667 55.39706572 -77.9272317 70.22246237 -70.86328125 81.87109375 C-63.87784702 91.51764579 -55.2912592 97.12390593 -43.55078125 99.12109375 C-32.32990185 100.24102797 -22.1097346 96.85231329 -13.09765625 90.3515625 C-10.314169 87.91387658 -8.65372144 85.52593641 -6.73828125 82.37109375 C-6.13371094 81.38625 -5.52914063 80.40140625 -4.90625 79.38671875 C-4.45894531 78.6390625 -4.01164062 77.89140625 -3.55078125 77.12109375 C1.65206943 77.69648689 5.68877911 79.41528268 10.32421875 81.68359375 C11.01257812 82.01294922 11.7009375 82.34230469 12.41015625 82.68164062 C14.09309205 83.48804736 15.77162168 84.30363869 17.44921875 85.12109375 C11.63034516 99.42290355 2.36002108 109.39920725 -11.55078125 116.12109375 C-28.78314507 122.70759771 -47.66553114 123.33948377 -64.80078125 115.99609375 C-71.52903943 112.95068005 -77.19041144 109.24924538 -82.55078125 104.12109375 C-83.24429688 103.47914063 -83.9378125 102.8371875 -84.65234375 102.17578125 C-96.824135 89.81600867 -102.34564261 71.93975485 -102.73828125 54.93359375 C-102.47735035 35.99001072 -96.42324175 19.18270665 -83.36328125 5.37109375 C-60.502941 -16.52111734 -25.30086875 -18.63662767 0 0 Z " fill="#67696E" transform="translate(1051.55078125,405.87890625)"/>
<path d="M0 0 C1.68637231 5.03892085 0.11883569 8.96469718 -1.4375 13.8125 C-1.68048828 14.60076172 -1.92347656 15.38902344 -2.17382812 16.20117188 C-2.77227431 18.13732129 -3.38475877 20.06912181 -4 22 C-7.61251642 22.91535716 -10.90536368 23.02179462 -14.62084961 22.8828125 C-24.65423432 22.54145222 -31.72786065 24.11421743 -39.75 30.5 C-47.16853026 37.52392759 -50.70655179 46.45131359 -51.15821838 56.53085327 C-51.17376266 57.83213165 -51.18930695 59.13341003 -51.20532227 60.47412109 C-51.22017166 61.55808167 -51.22017166 61.55808167 -51.23532104 62.66394043 C-51.26670923 65.03374036 -51.29160294 67.40356029 -51.31640625 69.7734375 C-51.33699541 71.42396543 -51.35799238 73.07448832 -51.37937927 74.7250061 C-51.4343974 79.05515443 -51.48389546 83.38534873 -51.53222656 87.71557617 C-51.58259012 92.1398525 -51.63819842 96.5640626 -51.69335938 100.98828125 C-51.80069293 109.65879953 -51.90170721 118.32937451 -52 127 C-59.59 127 -67.18 127 -75 127 C-75 85.75 -75 44.5 -75 2 C-67.74 2 -60.48 2 -53 2 C-53 8.27 -53 14.54 -53 21 C-50.69984605 18.69984605 -49.20122506 16.88242547 -47.4375 14.25 C-35.98605239 -1.13169754 -17.52559852 -4.09784349 0 0 Z " fill="#66696D" transform="translate(447,396)"/>
<path d="M0 0 C0.33 0 0.66 0 1 0 C1.02712066 1.43739513 1.04645067 2.87493863 1.0625 4.3125 C1.07410156 5.11300781 1.08570313 5.91351563 1.09765625 6.73828125 C1 9 1 9 0 12 C-0.20476107 16.27245156 -0.18580195 20.54721855 -0.18530273 24.82397461 C-0.18748854 26.92647565 -0.20565545 29.02845117 -0.22460938 31.13085938 C-0.22754376 32.47135238 -0.22952825 33.81184787 -0.23046875 35.15234375 C-0.23457764 36.36913818 -0.23868652 37.58593262 -0.24291992 38.83959961 C-0.01006699 41.86902791 0.45406903 43.44634835 2 46 C2.44059807 47.31921763 2.83781077 48.65382793 3.1875 50 C3.36667969 50.66 3.54585937 51.32 3.73046875 52 C4.03576811 54.26540976 3.68136613 55.835092 3 58 C-4.72866421 40.02897982 -6.90082491 18.69337381 0 0 Z " fill="#F8CA35" transform="translate(542,149)"/>
<path d="M0 0 C0.33 0 0.66 0 1 0 C4.43180132 21.50410989 0.8264705 42.57805442 -11.8984375 60.5234375 C-12.44371094 61.25433594 -12.44371094 61.25433594 -13 62 C-13.33 60.68 -13.66 59.36 -14 58 C-12.515 57.505 -12.515 57.505 -11 57 C-11 55.68 -11 54.36 -11 53 C-10.34 53 -9.68 53 -9 53 C-9.495 51.515 -9.495 51.515 -10 50 C-9.01 50 -8.02 50 -7 50 C-7 48.68 -7 47.36 -7 46 C-6.34 46 -5.68 46 -5 46 C-5 44.02 -5 42.04 -5 40 C-4.34 40 -3.68 40 -3 40 C-2.0672582 35.900639 -1.71174738 31.87956712 -1.4375 27.6875 C-1.35371094 26.43324219 -1.26992188 25.17898437 -1.18359375 23.88671875 C-1.12300781 22.93410156 -1.06242188 21.98148438 -1 21 C-0.67 21 -0.34 21 0 21 C0 14.07 0 7.14 0 0 Z " fill="#FCD347" transform="translate(690,159)"/>
<path d="M0 0 C0.66 0.33 1.32 0.66 2 1 C2.03758423 2.21901001 2.03758423 2.21901001 2.07592773 3.46264648 C2.19149118 7.12110752 2.31439584 10.77928528 2.4375 14.4375 C2.47681641 15.71689453 2.51613281 16.99628906 2.55664062 18.31445312 C2.59853516 19.52939453 2.64042969 20.74433594 2.68359375 21.99609375 C2.72025146 23.12200928 2.75690918 24.2479248 2.79467773 25.40795898 C2.71218045 27.92853441 2.71218045 27.92853441 4 29 C4.07179964 30.51928038 4.08392007 32.04167482 4.0625 33.5625 C4.05347656 34.38878906 4.04445313 35.21507812 4.03515625 36.06640625 C4.02355469 36.70449219 4.01195312 37.34257812 4 38 C-2.78614351 27.82078473 -1.57073432 11.62343396 0 0 Z " fill="#689CF1" transform="translate(707,161)"/>
<path d="M0 0 C0.66 0 1.32 0 2 0 C4.10739416 11.83899142 4.86058912 21.10401966 -1 32 C-1.99 32.495 -1.99 32.495 -3 33 C-2.7834375 32.12601563 -2.566875 31.25203125 -2.34375 30.3515625 C-0.02453801 20.10837622 0.32402096 10.47667755 0 0 Z " fill="#F7C93B" transform="translate(657,162)"/>
<path d="M0 0 C0.99 0.33 1.98 0.66 3 1 C3 1.66 3 2.32 3 3 C3.99 3.33 4.98 3.66 6 4 C6 4.66 6 5.32 6 6 C6.99 6.33 7.98 6.66 9 7 C9 7.66 9 8.32 9 9 C9.66 9 10.32 9 11 9 C12.65625 11.01171875 12.65625 11.01171875 14.5 13.6875 C15.1084375 14.55761719 15.716875 15.42773438 16.34375 16.32421875 C17.89730485 18.8340892 19.00165175 21.22958361 20 24 C15.93437107 22.6931907 14.82198476 20.24756582 12.94921875 16.6796875 C11.88418273 14.79505586 10.56161567 13.48353488 9 12 C9 11.34 9 10.68 9 10 C8.34 10 7.68 10 7 10 C6.34 8.35 5.68 6.7 5 5 C4.01 5.33 3.02 5.66 2 6 C1.34 4.02 0.68 2.04 0 0 Z " fill="#FAD03E" transform="translate(663,114)"/>
<path d="M0 0 C0.88042969 0.42152344 1.76085937 0.84304687 2.66796875 1.27734375 C3.82941406 1.82519531 4.99085938 2.37304688 6.1875 2.9375 C7.33605469 3.48277344 8.48460937 4.02804688 9.66796875 4.58984375 C15.47839987 7.04888904 20.60090982 7.13018707 26.8125 7.0625 C27.60076172 7.05798828 28.38902344 7.05347656 29.20117188 7.04882812 C31.13414761 7.03711312 33.06708393 7.01917998 35 7 C33 9 33 9 31.17163086 9.24291992 C30.44339111 9.23881104 29.71515137 9.23470215 28.96484375 9.23046875 C28.15466797 9.22853516 27.34449219 9.22660156 26.50976562 9.22460938 C25.23649414 9.20624023 25.23649414 9.20624023 23.9375 9.1875 C23.11572266 9.18685547 22.29394531 9.18621094 21.44726562 9.18554688 C15.89920269 9.14626083 10.50416907 8.69287123 5 8 C5 7.01 5 6.02 5 5 C4.34 5 3.68 5 3 5 C1.375 3.625 1.375 3.625 0 2 C0 1.34 0 0.68 0 0 Z " fill="#F9CA3C" transform="translate(590,212)"/>
<path d="M0 0 C1.18771723 3.42943519 0.80226223 5.37784675 -0.4375 8.75 C-0.72496094 9.54921875 -1.01242187 10.3484375 -1.30859375 11.171875 C-1.53675781 11.77515625 -1.76492188 12.3784375 -2 13 C-2.66 13 -3.32 13 -4 13 C-4.061875 13.886875 -4.12375 14.77375 -4.1875 15.6875 C-5.19921776 19.81219549 -6.65627342 21.43388425 -10 24 C-12.3125 23.8125 -12.3125 23.8125 -14 23 C-13.01 22.67 -12.02 22.34 -11 22 C-9.94193397 20.16077134 -9.94193397 20.16077134 -9 18 C-8.03507979 16.59428059 -7.05495976 15.19891325 -6.0625 13.8125 C-3.08121881 9.42440397 -1.3747334 5.10098445 0 0 Z " fill="#659AEE" transform="translate(821,188)"/>
<path d="M0 0 C-7.87735225 3.94904106 -15.92126192 3.33719484 -24.5 3.1875 C-26.00519497 3.1724286 -27.51040451 3.15874453 -29.015625 3.14648438 C-32.67738941 3.11366687 -36.33860021 3.06201989 -40 3 C-40 2.67 -40 2.34 -40 2 C-39.22922119 1.98018066 -38.45844238 1.96036133 -37.66430664 1.93994141 C-34.13006151 1.84395546 -30.59634883 1.73457671 -27.0625 1.625 C-25.24395508 1.57859375 -25.24395508 1.57859375 -23.38867188 1.53125 C-18.08802503 1.35887124 -13.03653701 1.15830171 -7.87109375 -0.1015625 C-4.28568906 -0.93369477 -3.27541736 -1.03616175 0 0 Z " fill="#9AC1F6" transform="translate(276,216)"/>
<path d="M0 0 C4.72598133 7.08897199 8.16648263 17.50134085 7 26 C6.34 26.66 5.68 27.32 5 28 C4.15092326 25.1157317 3.98614506 22.80017191 4.1875 19.8125 C4.27072028 15.21268789 2.91500571 12.14895512 0.890625 8.0859375 C-0.28750747 5.32662725 -0.30341621 2.95830802 0 0 Z " fill="#F07167" transform="translate(516,140)"/>
<path d="M0 0 C0.66 0 1.32 0 2 0 C2.08690253 4.43737712 2.14035926 8.87453634 2.1875 13.3125 C2.22520508 15.20645508 2.22520508 15.20645508 2.26367188 17.13867188 C2.27333984 18.34716797 2.28300781 19.55566406 2.29296875 20.80078125 C2.3086792 21.91622314 2.32438965 23.03166504 2.34057617 24.1809082 C2 27 2 27 0.48168945 28.88745117 C-0.25174683 29.43816284 -0.25174683 29.43816284 -1 30 C-0.835 28.7625 -0.67 27.525 -0.5 26.25 C0.39602189 17.54218159 0.08271505 8.74234491 0 0 Z " fill="#F3806E" transform="translate(489,161)"/>
<path d="M0 0 C1.32 0.33 2.64 0.66 4 1 C1.75432319 2.48610965 -0.49609454 3.96396459 -2.75 5.4375 C-3.38421875 5.85837891 -4.0184375 6.27925781 -4.671875 6.71289062 C-5.6 7.31713867 -5.6 7.31713867 -6.546875 7.93359375 C-7.11245117 8.30540771 -7.67802734 8.67722168 -8.26074219 9.06030273 C-10.15049862 10.08131235 -11.90392138 10.56432082 -14 11 C-14 10.01 -14 9.02 -14 8 C-12.68 8 -11.36 8 -10 8 C-10 7.34 -10 6.68 -10 6 C-6.63316085 3.56839395 -5.26649636 3 -1 3 C-0.67 2.01 -0.34 1.02 0 0 Z " fill="#FBCE3B" transform="translate(662,232)"/>
<path d="M0 0 C-2 2.5 -2 2.5 -5 5 C-8.875 5.25 -8.875 5.25 -10.9296875 5.109375 C-14.04503782 4.94479045 -16.93006879 5.4883448 -20 6 C-14.39081353 1.38599178 -7.23439006 -0.57113606 0 0 Z " fill="#FACD3C" transform="translate(603,99)"/>
<path d="M0 0 C9.9 0 19.8 0 30 0 C28 4 28 4 25 6 C25 4.68 25 3.36 25 2 C16.75 1.67 8.5 1.34 0 1 C0 0.67 0 0.34 0 0 Z " fill="#8A8277" transform="translate(537,398)"/>
<path d="M0 0 C0.66 0.33 1.32 0.66 2 1 C1.67 1.66 1.34 2.32 1 3 C0.34 3 -0.32 3 -1 3 C-1 3.99 -1 4.98 -1 6 C-2.65 6.33 -4.3 6.66 -6 7 C-6.04125 7.5775 -6.0825 8.155 -6.125 8.75 C-7.44065958 12.13312465 -9.96552364 13.19222685 -13 15 C-13.66 14.67 -14.32 14.34 -15 14 C-10.18808428 9.07559794 -5.29012124 4.40843437 0 0 Z " fill="#75A6F3" transform="translate(173,37)"/>
<path d="M0 0 C0.33 1.32 0.66 2.64 1 4 C0.01 4.33 -0.98 4.66 -2 5 C-2.33 5.99 -2.66 6.98 -3 8 C-5.3125 9.0625 -5.3125 9.0625 -8 10 C-9.33954963 10.6540864 -10.67409813 11.31867303 -12 12 C-8.32167983 7.47384007 -4.58913637 3.60575001 0 0 Z " fill="#EB5E4D" transform="translate(402,111)"/>
<path d="M0 0 C0.66 0.33 1.32 0.66 2 1 C0.50924025 5.72073922 0.50924025 5.72073922 -1.9375 7.0625 C-2.618125 7.371875 -3.29875 7.68125 -4 8 C-4.474375 8.680625 -4.94875 9.36125 -5.4375 10.0625 C-7.43958017 12.54507941 -8.90228009 12.66511136 -12 13 C-11.319375 12.34 -10.63875 11.68 -9.9375 11 C-6.43274653 7.50531766 -3.22778212 3.74869221 0 0 Z " fill="#F8CB3C" transform="translate(650,201)"/>
<path d="M0 0 C4.33212645 4.33212645 5.50575052 9.03993271 6 15 C5.54296875 17.30859375 5.54296875 17.30859375 5 19 C2.12059087 12.5849443 0.4535179 7.02952752 0 0 Z " fill="#FBD044" transform="translate(540,188)"/>
<path d="M0 0 C0.33 0 0.66 0 1 0 C1.5939348 7.57266875 -0.56713714 13.87518733 -3 21 C-3.33 20.01 -3.66 19.02 -4 18 C-4.66 17.67 -5.32 17.34 -6 17 C-5.01 16.34 -4.02 15.68 -3 15 C-2.23519557 12.75371867 -2.23519557 12.75371867 -1.875 10.1875 C-1.72804688 9.33542969 -1.58109375 8.48335937 -1.4296875 7.60546875 C-1.28789063 6.74566406 -1.14609375 5.88585937 -1 5 C-0.67243564 3.33218992 -0.34080375 1.66515516 0 0 Z " fill="#F17463" transform="translate(522,182)"/>
<path d="M0 0 C-0.99 0.33 -1.98 0.66 -3 1 C-3 1.66 -3 2.32 -3 3 C-9.93 3 -16.86 3 -24 3 C-24 2.67 -24 2.34 -24 2 C-22.62328125 1.92652344 -22.62328125 1.92652344 -21.21875 1.8515625 C-13.15258617 1.41795884 -13.15258617 1.41795884 -5.25 -0.125 C-2 -1 -2 -1 0 0 Z " fill="#F16D5E" transform="translate(1019,219)"/>
<path d="M0 0 C0.33 0.66 0.66 1.32 1 2 C1.66 2.33 2.32 2.66 3 3 C2.01 4.485 2.01 4.485 1 6 C1.04125 6.825 1.0825 7.65 1.125 8.5 C1 11 1 11 -1 12.8125 C-1.66 13.204375 -2.32 13.59625 -3 14 C-3.40652968 8.57960425 -2.03993514 4.92984325 0 0 Z " fill="#E8614E" transform="translate(933,140)"/>
<path d="M0 0 C0.33 0.99 0.66 1.98 1 3 C-0.109375 4.82421875 -0.109375 4.82421875 -1.75 6.6875 C-2.28109375 7.31011719 -2.8121875 7.93273437 -3.359375 8.57421875 C-5 10 -5 10 -8 10 C-8.66 11.32 -9.32 12.64 -10 14 C-10.99 13.34 -11.98 12.68 -13 12 C-12.39671875 11.55269531 -11.7934375 11.10539062 -11.171875 10.64453125 C-6.89830703 7.41178386 -3.09726243 4.44389827 0 0 Z " fill="#868283" transform="translate(781,488)"/>
<path d="M0 0 C3.96 0 7.92 0 12 0 C12.33 0.66 12.66 1.32 13 2 C15.01669827 3.13350534 15.01669827 3.13350534 17 4 C17 4.33 17 4.66 17 5 C10.95198929 4.45018084 5.69398894 3.09570426 0 1 C0 0.67 0 0.34 0 0 Z " fill="#FBCB3C" transform="translate(584,244)"/>
<path d="M0 0 C2.475 0.99 2.475 0.99 5 2 C1.19486939 3.96817101 -1.87638072 5.13317409 -6.1875 5.0625 C-8.0746875 5.0315625 -8.0746875 5.0315625 -10 5 C-10 4.34 -10 3.68 -10 3 C-7.03 3 -4.06 3 -1 3 C-0.67 2.01 -0.34 1.02 0 0 Z " fill="#6EA0EC" transform="translate(794,245)"/>
<path d="M0 0 C0.92683594 -0.00257812 1.85367188 -0.00515625 2.80859375 -0.0078125 C5.49115981 0.12155948 7.94818718 0.52717166 10.5625 1.125 C10.5625 1.455 10.5625 1.785 10.5625 2.125 C9.95664062 2.11339844 9.35078125 2.10179688 8.7265625 2.08984375 C2.60325052 2.02390039 -3.35843331 2.40068567 -9.4375 3.125 C-9.4375 2.465 -9.4375 1.805 -9.4375 1.125 C-6.23270586 0.1748728 -3.33680167 -0.00925604 0 0 Z " fill="#EF7263" transform="translate(997.4375,125.875)"/>
<path d="M0 0 C-1.25 2.5 -1.25 2.5 -3 5 C-4.32 5 -5.64 5 -7 5 C-7.33 6.32 -7.66 7.64 -8 9 C-8.99 8.34 -9.98 7.68 -11 7 C-3.96875 -1.984375 -3.96875 -1.984375 0 0 Z " fill="#5B93EE" transform="translate(163,51)"/>
<path d="M0 0 C0.66 0.33 1.32 0.66 2 1 C0.78294994 2.01471171 -0.44926884 3.0112461 -1.6875 4 C-2.71423828 4.8353125 -2.71423828 4.8353125 -3.76171875 5.6875 C-6.38783056 7.22741897 -8.00603356 7.25168194 -11 7 C-8.84658594 4.65082102 -6.78332063 3.17556996 -3.9375 1.75 C-3.24527344 1.39421875 -2.55304688 1.0384375 -1.83984375 0.671875 C-1.23269531 0.45015625 -0.62554687 0.2284375 0 0 Z " fill="#EB6759" transform="translate(415,104)"/>
<path d="M0 0 C1 3 1 3 0.25 5.125 C-1 7 -1 7 -4 8 C-5.22520264 11.00847418 -5.22520264 11.00847418 -6 14 C-6.66 14 -7.32 14 -8 14 C-6.6744419 10.37723685 -5.05653045 7.36494652 -2.875 4.1875 C-2.33617187 3.39730469 -1.79734375 2.60710938 -1.2421875 1.79296875 C-0.83226562 1.20128906 -0.42234375 0.60960937 0 0 Z " fill="#6F9FF0" transform="translate(151,59)"/>
<path d="M0 0 C1.98 0 3.96 0 6 0 C6.0825 0.61875 6.165 1.2375 6.25 1.875 C6.81258459 4.18437567 6.81258459 4.18437567 9.0625 5.25 C9.701875 5.4975 10.34125 5.745 11 6 C10.34 6.66 9.68 7.32 9 8 C7.49712782 6.85793642 5.99776716 5.71125043 4.5 4.5625 C3.6646875 3.92441406 2.829375 3.28632813 1.96875 2.62890625 C1.3190625 2.09136719 0.669375 1.55382812 0 1 C0 0.67 0 0.34 0 0 Z " fill="#6299EE" transform="translate(167,220)"/>
<path d="M0 0 C5.89621951 0.60165505 11.35893654 1.69971892 15.9375 5.6875 C16.4634375 6.3371875 16.4634375 6.3371875 17 7 C16.67 7.66 16.34 8.32 16 9 C15.34773437 8.59007812 14.69546875 8.18015625 14.0234375 7.7578125 C9.45293149 4.94000791 5.24280337 2.3796851 0 1 C0 0.67 0 0.34 0 0 Z " fill="#F9C93C" transform="translate(626,129)"/>
<path d="M0 0 C0.66 0 1.32 0 2 0 C0.82744291 3.33727786 -0.18868404 5.77437487 -3 8 C-3.66 8 -4.32 8 -5 8 C-5.33 8.99 -5.66 9.98 -6 11 C-6.66 10.67 -7.32 10.34 -8 10 C-6.71580959 8.32756598 -5.42242815 6.66218553 -4.125 5 C-3.04605469 3.6078125 -3.04605469 3.6078125 -1.9453125 2.1875 C-1.30335938 1.465625 -0.66140625 0.74375 0 0 Z " fill="#EE6654" transform="translate(949,117)"/>
<path d="M0 0 C0.66 0.33 1.32 0.66 2 1 C0.07794768 4.65189941 -1.22037054 6.36216057 -5 8 C-5.33 8.66 -5.66 9.32 -6 10 C-6.66 10 -7.32 10 -8 10 C-6.34908222 5.70761377 -3.26245434 3.1206085 0 0 Z " fill="#75A8F2" transform="translate(733,115)"/>
<path d="M0 0 C1.27351308 2.54702616 0.80191925 3.4282945 0.0625 6.125 C-0.13214844 6.84945313 -0.32679688 7.57390625 -0.52734375 8.3203125 C-0.68332031 8.87460937 -0.83929688 9.42890625 -1 10 C-1.99 9.34 -2.98 8.68 -4 8 C-4.4375 5.5625 -4.4375 5.5625 -4 3 C-2 1.1875 -2 1.1875 0 0 Z " fill="#7D7D7B" transform="translate(220,366)"/>
<path d="M0 0 C0.99 0 1.98 0 3 0 C2.36934243 3.21852831 1.21979305 5.50801069 -0.5625 8.25 C-1.01753906 8.95640625 -1.47257813 9.6628125 -1.94140625 10.390625 C-2.29074219 10.92171875 -2.64007812 11.4528125 -3 12 C-3.33 10.68 -3.66 9.36 -4 8 C-3.01 7.67 -2.02 7.34 -1 7 C-1 5.68 -1 4.36 -1 3 C-0.34 3 0.32 3 1 3 C0.67 2.01 0.34 1.02 0 0 Z " fill="#FCCB38" transform="translate(680,209)"/>
<path d="M0 0 C4.42857143 5.14285714 4.42857143 5.14285714 5 9 C3.125 8.6875 3.125 8.6875 1 8 C-1 5 -1 5 -0.625 2.3125 C-0.41875 1.549375 -0.2125 0.78625 0 0 Z " fill="#6598F4" transform="translate(169,170)"/>
<path d="M0 0 C0.99 0 1.98 0 3 0 C3 3.96 3 7.92 3 12 C0.97649676 8.96474514 0.67875982 7.80573798 0.375 4.3125 C0.30023437 3.50425781 0.22546875 2.69601563 0.1484375 1.86328125 C0.09945312 1.24839844 0.05046875 0.63351563 0 0 Z " fill="#4F88DE" transform="translate(737,172)"/>
<path d="M0 0 C3.62174279 3.62174279 4.87956218 9.03284894 5.1875 14.0625 C5.125625 14.701875 5.06375 15.34125 5 16 C0.96695587 11.4169953 -0.36552401 6.03114611 0 0 Z " fill="#F9D242" transform="translate(685,143)"/>
<path d="M0 0 C0.33 0.66 0.66 1.32 1 2 C-0.87577357 6.06417607 -2.93582393 8.12422643 -7 10 C-7.66 9.67 -8.32 9.34 -9 9 C-7.68 8.34 -6.36 7.68 -5 7 C-5 6.34 -5 5.68 -5 5 C-3.37446717 3.29319053 -1.70884005 1.62339805 0 0 Z " fill="#6FA5F3" transform="translate(311,190)"/>
<path d="M0 0 C0.66 0.33 1.32 0.66 2 1 C0.35 3.64 -1.3 6.28 -3 9 C-4.32 8.67 -5.64 8.34 -7 8 C-5.71937515 6.2925002 -4.38232443 4.62626404 -3 3 C-2.34 3 -1.68 3 -1 3 C-0.67 2.01 -0.34 1.02 0 0 Z " fill="#FBD03A" transform="translate(562,117)"/>
<path d="M0 0 C1.65 0.33 3.3 0.66 5 1 C2.7629196 4.3556206 2.57482962 4.19278041 -1 5 C-1.33 5.66 -1.66 6.32 -2 7 C-2.66 6.67 -3.32 6.34 -4 6 C-2.68 4.02 -1.36 2.04 0 0 Z " fill="#888383" transform="translate(1176,484)"/>
<path d="M0 0 C-3.12988781 2.64836661 -6.0193072 4.0048268 -10 5 C-12.1875 4.546875 -12.1875 4.546875 -14 4 C-4.58997722 -0.59225513 -4.58997722 -0.59225513 0 0 Z " fill="#FAD146" transform="translate(648,243)"/>
<path d="M0 0 C1.13508688 3.3515741 0.87309359 5.35675676 -0.25 8.6875 C-0.50265625 9.47511719 -0.7553125 10.26273438 -1.015625 11.07421875 C-2 13 -2 13 -5 14 C-4.731875 13.360625 -4.46375 12.72125 -4.1875 12.0625 C-2.64635858 8.08797739 -1.32390688 4.05115505 0 0 Z " fill="#7CA8F1" transform="translate(821,188)"/>
<path d="M0 0 C-1.2065625 0.6496875 -1.2065625 0.6496875 -2.4375 1.3125 C-5.27846354 2.80474002 -5.27846354 2.80474002 -6 6 C-6.66 6 -7.32 6 -8 6 C-8 5.34 -8 4.68 -8 4 C-9.32 3.67 -10.64 3.34 -12 3 C-10.3789897 2.30314502 -8.75303934 1.61777139 -7.125 0.9375 C-6.22007812 0.55464844 -5.31515625 0.17179688 -4.3828125 -0.22265625 C-2 -1 -2 -1 0 0 Z " fill="#ED6E5C" transform="translate(986,162)"/>
<path d="M0 0 C-3.96 1.65 -7.92 3.3 -12 5 C-12 3.68 -12 2.36 -12 1 C-4.5 -1.125 -4.5 -1.125 0 0 Z " fill="#F7C83E" transform="translate(604,130)"/>
<path d="M0 0 C1.32 0.33 2.64 0.66 4 1 C4 1.99 4 2.98 4 4 C4.66 4 5.32 4 6 4 C6.33 5.65 6.66 7.3 7 9 C6.34 9 5.68 9 5 9 C3.7109375 7.5390625 3.7109375 7.5390625 2.375 5.625 C1.92898438 4.99851563 1.48296875 4.37203125 1.0234375 3.7265625 C0 2 0 2 0 0 Z " fill="#F9CB3C" transform="translate(551,216)"/>
<path d="M0 0 C4 2 8 4 12 6 C9 7 9 7 5.4375 5.8125 C2.1047123 4.05521194 1.08336479 3.49084212 0 0 Z " fill="#EF7164" transform="translate(420,211)"/>
<path d="M0 0 C0.99 0.33 1.98 0.66 3 1 C3.33 3.64 3.66 6.28 4 9 C3.01 8.34 2.02 7.68 1 7 C1 6.01 1 5.02 1 4 C0.34 4 -0.32 4 -1 4 C-0.67 2.68 -0.34 1.36 0 0 Z " fill="#E66851" transform="translate(964,196)"/>
<path d="M0 0 C0.33 0 0.66 0 1 0 C1 3.63 1 7.26 1 11 C0.01 11 -0.98 11 -2 11 C-1.125 3.375 -1.125 3.375 0 0 Z " fill="#ED6B57" transform="translate(374,149)"/>
<path d="M0 0 C1.98 0 3.96 0 6 0 C2.87567603 2.52349243 -0.38060496 4.27256146 -4 6 C-4 4.68 -4 3.36 -4 2 C-2.68 2 -1.36 2 0 2 C0 1.34 0 0.68 0 0 Z " fill="#E96B59" transform="translate(982,129)"/>
<path d="M0 0 C1.25541557 3.76624671 0.37061958 5.37188934 -1 9 C-1.99 7.68 -2.98 6.36 -4 5 C-2.25 1.125 -2.25 1.125 0 0 Z " fill="#808183" transform="translate(92,468)"/>
<path d="M0 0 C0.99 1.32 1.98 2.64 3 4 C1.35 6.31 -0.3 8.62 -2 11 C-3 9 -3 9 -2.44140625 6.8359375 C-2.15136719 6.02382813 -1.86132812 5.21171875 -1.5625 4.375 C-1.27503906 3.55773437 -0.98757812 2.74046875 -0.69140625 1.8984375 C-0.46324219 1.27195312 -0.23507813 0.64546875 0 0 Z " fill="#858486" transform="translate(73,459)"/>
<path d="M0 0 C0.66 0 1.32 0 2 0 C2 1.65 2 3.3 2 5 C2.66 5 3.32 5 4 5 C4 6.65 4 8.3 4 10 C3.01 10.495 3.01 10.495 2 11 C0.80712589 7.12315913 0 4.08378077 0 0 Z " fill="#8A8381" transform="translate(18,399)"/>
<path d="M0 0 C0.66 0.33 1.32 0.66 2 1 C0.92456217 1.98783194 -0.16073217 2.96493943 -1.25 3.9375 C-2.15492188 4.75541016 -2.15492188 4.75541016 -3.078125 5.58984375 C-5.08467305 7.06212799 -6.57002449 7.57529189 -9 8 C-6.14723863 5.06799526 -3.34920216 2.35684596 0 0 Z " fill="#8D8E8E" transform="translate(411,400)"/>
<path d="M0 0 C-4.87058675 2.51926901 -8.49053291 3.10395221 -14 3 C-12.67661368 2.31379969 -11.34050052 1.65213539 -10 1 C-9.195625 0.608125 -8.39125 0.21625 -7.5625 -0.1875 C-4.61011137 -1.12362322 -2.94190428 -0.84054408 0 0 Z " fill="#81AEF4" transform="translate(280,246)"/>
<path d="M0 0 C0 0.99 0 1.98 0 3 C-5.75 6 -5.75 6 -8 6 C-8 5.01 -8 4.02 -8 3 C-6.68 3 -5.36 3 -4 3 C-4 2.34 -4 1.68 -4 1 C-2 0 -2 0 0 0 Z " fill="#FCC62C" transform="translate(656,237)"/>
<path d="M0 0 C0.33 0.66 0.66 1.32 1 2 C0.195625 2.45375 -0.60875 2.9075 -1.4375 3.375 C-4.08856572 4.74725665 -4.08856572 4.74725665 -5 7 C-7.97 6.505 -7.97 6.505 -11 6 C-8.61542052 4.41028035 -6.3695876 3.13258407 -3.8125 1.875 C-3.09707031 1.52179688 -2.38164062 1.16859375 -1.64453125 0.8046875 C-1.10183594 0.53914062 -0.55914062 0.27359375 0 0 Z " fill="#F07765" transform="translate(470,213)"/>
<path d="M0 0 C-0.6796875 1.953125 -0.6796875 1.953125 -2 4 C-4.3828125 4.609375 -4.3828125 4.609375 -7.125 4.75 C-8.03507813 4.80671875 -8.94515625 4.8634375 -9.8828125 4.921875 C-10.58148437 4.94765625 -11.28015625 4.9734375 -12 5 C-9.9330412 2.9330412 -8.69369158 2.35542451 -6 1.375 C-5.29875 1.11460937 -4.5975 0.85421875 -3.875 0.5859375 C-2 0 -2 0 0 0 Z " fill="#EF7A68" transform="translate(998,156)"/>
<path d="M0 0 C2.94721162 2.74395564 5.19168608 5.38337216 7 9 C6.67 9.66 6.34 10.32 6 11 C2.78097174 8.85398116 1.70544246 7.41088492 0 4 C0 2.68 0 1.36 0 0 Z " fill="#FBCE48" transform="translate(676,127)"/>
<path d="M0 0 C0.33 0.66 0.66 1.32 1 2 C-0.1875 5.0625 -0.1875 5.0625 -2 8 C-4.1875 8.875 -4.1875 8.875 -6 9 C-4.47291037 5.56404834 -2.40072955 2.88087546 0 0 Z " fill="#EC6F5B" transform="translate(389,123)"/>
<path d="M0 0 C0 0.66 0 1.32 0 2 C-1.3921875 2.680625 -1.3921875 2.680625 -2.8125 3.375 C-6.03921389 4.9421633 -6.03921389 4.9421633 -9 7 C-9.66 6.34 -10.32 5.68 -11 5 C-9.54462432 4.16151196 -8.08559627 3.32936066 -6.625 2.5 C-5.81289063 2.0359375 -5.00078125 1.571875 -4.1640625 1.09375 C-2 0 -2 0 0 0 Z " fill="#888688" transform="translate(265,399)"/>
<path d="M0 0 C1.32 0.99 2.64 1.98 4 3 C0.25 6 0.25 6 -2 6 C-2.33 5.01 -2.66 4.02 -3 3 C-2.01 2.67 -1.02 2.34 0 2 C0 1.34 0 0.68 0 0 Z " fill="#5F98F0" transform="translate(820,304)"/>
<path d="M0 0 C2.52349243 3.12432397 4.27256146 6.38060496 6 10 C5.01 10.495 5.01 10.495 4 11 C3.34 10.01 2.68 9.02 2 8 C1.34 7.34 0.68 6.68 0 6 C-0.125 2.875 -0.125 2.875 0 0 Z " fill="#699AEF" transform="translate(744,195)"/>
<path d="M0 0 C0.66 0 1.32 0 2 0 C2.1953125 6.0546875 2.1953125 6.0546875 2 8 C1.34 8.66 0.68 9.32 0 10 C-1.2380014 6.42355152 -0.74926071 3.66305234 0 0 Z " fill="#EB6257" transform="translate(521,158)"/>
<path d="M0 0 C-0.66 1.65 -1.32 3.3 -2 5 C-3.98 5 -5.96 5 -8 5 C-3.16129032 0 -3.16129032 0 0 0 Z " fill="#6A9FF0" transform="translate(750,105)"/>
<path d="M0 0 C1.5 1.3125 1.5 1.3125 3 3 C3 3.99 3 4.98 3 6 C1.68 6.33 0.36 6.66 -1 7 C-0.67 4.69 -0.34 2.38 0 0 Z " fill="#837E7E" transform="translate(666,417)"/>
<path d="M0 0 C0.99 0 1.98 0 3 0 C1.55746343 3.36591866 -0.33264727 5.51047079 -3 8 C-3 6.68 -3 5.36 -3 4 C-2.34 4 -1.68 4 -1 4 C-0.67 2.68 -0.34 1.36 0 0 Z " fill="#6B99F7" transform="translate(835,292)"/>
<path d="M0 0 C0.66 0.33 1.32 0.66 2 1 C0.35 2.65 -1.3 4.3 -3 6 C-4.32 5.34 -5.64 4.68 -7 4 C-1.7265625 0.77734375 -1.7265625 0.77734375 0 0 Z " fill="#EA6759" transform="translate(1027,213)"/>
<path d="M0 0 C0 3.16880694 -0.2058242 4.43689172 -2 7 C-4.625 7.75 -4.625 7.75 -7 8 C-6.02133662 6.85373678 -5.04205413 5.70800212 -4.0625 4.5625 C-3.51722656 3.92441406 -2.97195313 3.28632813 -2.41015625 2.62890625 C-1.63204305 1.73008851 -0.84063472 0.84063472 0 0 Z " fill="#EC745D" transform="translate(1037,204)"/>
<path d="M0 0 C0.99 1.32 1.98 2.64 3 4 C1.68 4.99 0.36 5.98 -1 7 C-1.66 5.68 -2.32 4.36 -3 3 C-2.01 2.01 -1.02 1.02 0 0 Z " fill="#548BF2" transform="translate(332,208)"/>
<path d="M0 0 C1 4 1 4 -0.4375 6.75 C-1.2109375 7.86375 -1.2109375 7.86375 -2 9 C-2.99 8.67 -3.98 8.34 -5 8 C-3.35 5.36 -1.7 2.72 0 0 Z " fill="#EB6E5D" transform="translate(484,197)"/>
<path d="M0 0 C1.485 0.99 1.485 0.99 3 2 C3.29296875 4.1640625 3.29296875 4.1640625 3.1875 6.625 C3.16042969 7.44226563 3.13335938 8.25953125 3.10546875 9.1015625 C3.07066406 9.72804687 3.03585937 10.35453125 3 11 C0.43383368 7.15075052 0.44902324 4.5650696 0 0 Z " fill="#7AA7EE" transform="translate(708,188)"/>
<path d="M0 0 C0.33 0 0.66 0 1 0 C1.37211538 7.56634615 1.37211538 7.56634615 -0.51171875 9.76171875 C-1.00285156 10.17035156 -1.49398438 10.57898438 -2 11 C-1.85957123 9.35369672 -1.71250671 7.70795821 -1.5625 6.0625 C-1.48128906 5.14597656 -1.40007812 4.22945312 -1.31640625 3.28515625 C-1 1 -1 1 0 0 Z " fill="#E77465" transform="translate(490,180)"/>
<path d="M0 0 C-1 2 -2 4 -3 6 C-4.32 5.34 -5.64 4.68 -7 4 C-2.25 0 -2.25 0 0 0 Z " fill="#689DEF" transform="translate(742,110)"/>
<path d="M0 0 C0.66 0.33 1.32 0.66 2 1 C0.75023244 4.65316671 0.32901247 5.78065836 -3 8 C-2.45276317 4.62537285 -1.9451 2.91765 0 0 Z " fill="#F8C328" transform="translate(650,201)"/>
<path d="M0 0 C0.33 1.32 0.66 2.64 1 4 C1.33 4.99 1.66 5.98 2 7 C-0.475 8.485 -0.475 8.485 -3 10 C-2.01 6.7 -1.02 3.4 0 0 Z " fill="#76A8F7" transform="translate(134,89)"/>
<path d="M0 0 C0.99 0.33 1.98 0.66 3 1 C2.67 1.66 2.34 2.32 2 3 C-0.3140622 3.73075648 -2.64828869 4.40138258 -5 5 C-3.35 3.35 -1.7 1.7 0 0 Z " fill="#7F7C7F" transform="translate(976,405)"/>
<path d="M0 0 C0.99 0.66 1.98 1.32 3 2 C-1.75 6 -1.75 6 -4 6 C-4 5.01 -4 4.02 -4 3 C-2.68 2.67 -1.36 2.34 0 2 C0 1.34 0 0.68 0 0 Z " fill="#EE6655" transform="translate(1048,232)"/>
<path d="M0 0 C1.875 0.3125 1.875 0.3125 4 1 C4.66 1.99 5.32 2.98 6 4 C5.67 4.99 5.34 5.98 5 7 C3.5 5.625 3.5 5.625 2 4 C2 3.34 2 2.68 2 2 C1.34 2 0.68 2 0 2 C0 1.34 0 0.68 0 0 Z " fill="#F8CB30" transform="translate(670,122)"/>
<path d="M0 0 C0.66 0.33 1.32 0.66 2 1 C0.7934375 1.4021875 0.7934375 1.4021875 -0.4375 1.8125 C-1.283125 2.204375 -2.12875 2.59625 -3 3 C-3.33 3.99 -3.66 4.98 -4 6 C-5.32 5.67 -6.64 5.34 -8 5 C-6.71475739 4.13619741 -5.42157581 3.28419631 -4.125 2.4375 C-3.04605469 1.72400391 -3.04605469 1.72400391 -1.9453125 0.99609375 C-1.30335938 0.66738281 -0.66140625 0.33867188 0 0 Z " fill="#F9CE45" transform="translate(577,107)"/>
<path d="M0 0 C0.66 1.32 1.32 2.64 2 4 C0.625 6 0.625 6 -1 8 C-1.66 8 -2.32 8 -3 8 C-1.125 2.25 -1.125 2.25 0 0 Z " fill="#73A1ED" transform="translate(138,80)"/>
<path d="M0 0 C1.32 0 2.64 0 4 0 C3.67 1.98 3.34 3.96 3 6 C1.5 4.6875 1.5 4.6875 0 3 C0 2.01 0 1.02 0 0 Z " fill="#7E7B73" transform="translate(570,494)"/>
<path d="M0 0 C0.33 0.99 0.66 1.98 1 3 C-0.4375 5.6875 -0.4375 5.6875 -2 8 C-2.66 7.67 -3.32 7.34 -4 7 C-2.79618552 4.50638429 -1.54571278 2.31856917 0 0 Z " fill="#808389" transform="translate(964,416)"/>
<path d="M0 0 C0.33 1.32 0.66 2.64 1 4 C0.01 4.66 -0.98 5.32 -2 6 C-2.99 5.67 -3.98 5.34 -5 5 C-3.35 3.35 -1.7 1.7 0 0 Z " fill="#7A787F" transform="translate(970,410)"/>
<path d="M0 0 C0.66 0 1.32 0 2 0 C3.125 2.75 3.125 2.75 4 6 C3.34 7.32 2.68 8.64 2 10 C1.34 6.7 0.68 3.4 0 0 Z " fill="#8E898B" transform="translate(12,378)"/>
<path d="M0 0 C0.66 0 1.32 0 2 0 C0.73058503 3.91402949 -0.51167694 5.79072873 -4 8 C-4 6.68 -4 5.36 -4 4 C-3.01 4 -2.02 4 -1 4 C-0.67 2.68 -0.34 1.36 0 0 Z " fill="#EC6F5E" transform="translate(1064,216)"/>
<path d="M0 0 C0.33 0 0.66 0 1 0 C1 2.64 1 5.28 1 8 C0.01 8 -0.98 8 -2 8 C-2.33 7.01 -2.66 6.02 -3 5 C-1.625 2.3125 -1.625 2.3125 0 0 Z " fill="#4C85EA" transform="translate(355,154)"/>
</svg>
