<?xml version="1.0" encoding="UTF-8"?>
<svg version="1.1" xmlns="http://www.w3.org/2000/svg" width="1200" height="500">
<path d="M0 0 C0.72960937 0.57492188 1.45921875 1.14984375 2.2109375 1.7421875 C7.95212856 6.48491055 12.45934288 12.12667199 17 18 C18.02287109 19.299375 18.02287109 19.299375 19.06640625 20.625 C36.85478 44.01792986 44.54065656 73.24542007 48 102 C48.13277344 103.10214844 48.26554687 104.20429688 48.40234375 105.33984375 C52.77144435 150.88622126 45.52142246 205.15889051 15.60107422 241.56665039 C-2.68162731 263.05506204 -25.68984405 275.8715731 -53.625 279.75 C-79.61042171 281.80279825 -101.61503323 275.38196532 -123 261 C-123.01030746 261.94610138 -123.02061493 262.89220276 -123.03123474 263.86697388 C-123.12954062 272.8395163 -123.23232136 281.81199814 -123.33933926 290.78444099 C-123.39420111 295.3958232 -123.44755663 300.00721201 -123.49731445 304.61865234 C-123.54550709 309.07965738 -123.59785913 313.54059696 -123.65294075 318.00152206 C-123.67311891 319.69249691 -123.69186789 321.38348952 -123.70907402 323.07449722 C-123.81208121 333.09134369 -124.14132128 343.01403412 -125 353 C-129.48325874 354.58838334 -133.97641216 355.73041818 -138.62597656 356.69580078 C-139.3649115 356.85214996 -140.10384644 357.00849915 -140.86517334 357.16958618 C-143.28961048 357.68161743 -145.71507558 358.18857874 -148.140625 358.6953125 C-149.83124976 359.05092773 -151.5218211 359.40679701 -153.21234131 359.76290894 C-156.74559483 360.50641388 -160.27933844 361.24752795 -163.81347656 361.98681641 C-168.34949521 362.93578368 -172.8844614 363.88967211 -177.41910172 364.84520149 C-180.9050813 365.57938585 -184.39148937 366.31151736 -187.87804413 367.04296494 C-189.55115247 367.39412164 -191.22415195 367.7457974 -192.89704132 368.09799576 C-195.22814546 368.58833859 -197.55978503 369.07604616 -199.89160156 369.56298828 C-200.58564087 369.70945801 -201.27968018 369.85592773 -201.99475098 370.00683594 C-206.77114049 371 -206.77114049 371 -209 371 C-209 242.3 -209 113.6 -209 -19 C-184.58 -19 -160.16 -19 -135 -19 C-133.31274631 -14.78186578 -132.28294944 -11.10343593 -131.375 -6.6875 C-130.98441406 -4.80611328 -130.98441406 -4.80611328 -130.5859375 -2.88671875 C-130.39257812 -1.93410156 -130.19921875 -0.98148438 -130 0 C-129.27296875 -0.56847656 -128.5459375 -1.13695313 -127.796875 -1.72265625 C-88.42588834 -31.95755498 -39.07239391 -31.41555591 0 0 Z M-123.71232605 65.00261307 C-126.40402068 69.1778592 -125.8130404 74.12891112 -125.74804688 78.93701172 C-125.75523239 80.13448029 -125.76241791 81.33194885 -125.76982117 82.56570435 C-125.78182822 85.83911255 -125.76652703 89.11087293 -125.7357502 92.38411856 C-125.71299226 95.12249474 -125.70784152 97.86079853 -125.70220137 100.59925473 C-125.68805084 107.06378059 -125.64115275 113.52751659 -125.57470703 119.99169922 C-125.50695649 126.64614179 -125.49810357 133.29885247 -125.51773977 139.95356166 C-125.53232873 145.67986997 -125.5082422 151.40515969 -125.45393991 157.13122761 C-125.42205802 160.54572335 -125.40493852 163.95864055 -125.42588806 167.37325668 C-125.43880245 171.18571828 -125.38844702 174.99240001 -125.32226562 178.80419922 C-125.33944138 179.92550232 -125.35661713 181.04680542 -125.37431335 182.2020874 C-125.23642792 186.8785724 -125.0227884 189.82705168 -121.8815155 193.42950821 C-110.26348741 202.9896429 -96.43781059 206.52527259 -81.59765625 205.84375 C-69.45141876 204.21799878 -59.34023388 198.07098711 -51.76757812 188.43115234 C-46.03742981 180.59460151 -41.79486589 172.3196447 -39 163 C-38.80535156 162.36658691 -38.61070312 161.73317383 -38.41015625 161.08056641 C-30.14757486 133.01884185 -33.36376325 100.37909708 -47.1875 74.6875 C-54.14524461 63.47271427 -63.33362413 55.65317736 -75.84765625 51.3671875 C-92.80905317 48.47359166 -111.40861097 52.40246753 -123.71232605 65.00261307 Z " fill="#625AFF" transform="translate(889,129)"/>
<path d="M0 0 C1.08667969 0.29003906 1.08667969 0.29003906 2.1953125 0.5859375 C19.63341096 5.4398412 33.75832457 13.76564428 47 26 C48.10408203 26.98226562 48.10408203 26.98226562 49.23046875 27.984375 C67.51569276 45.06518306 78.11141676 70.00464257 84.25 93.75 C84.48420654 94.64009766 84.71841309 95.53019531 84.9597168 96.44726562 C91.80481206 124.46576956 90 150.82306921 90 180 C36.21 180 -17.58 180 -73 180 C-68.52557568 197.89769729 -64.92380809 210.84273397 -49.11328125 220.36328125 C-21.17322058 235.05197061 16.52545773 230.46634787 45.80859375 221.58203125 C53.41866077 219.1645682 60.77325102 216.44617555 67.93359375 212.8828125 C70 212 70 212 73 212 C73.18550513 220.64907153 73.32757534 229.29745684 73.41449738 237.94808483 C73.45622064 241.96521024 73.5127878 245.98097327 73.60351562 249.99731445 C73.6905572 253.87481835 73.73829569 257.75101381 73.75901794 261.62941933 C73.7737805 263.10756346 73.80261194 264.58563725 73.84584045 266.06322289 C74.1703302 277.61591061 74.1703302 277.61591061 71.33125305 280.97354126 C69.25554055 282.31106777 67.32789676 283.19205593 65 284 C64.16364014 284.40347656 63.32728027 284.80695313 62.46557617 285.22265625 C61.74861572 285.49980469 61.03165527 285.77695312 60.29296875 286.0625 C59.05716064 286.5416687 59.05716064 286.5416687 57.79638672 287.03051758 C56.9354541 287.35044678 56.07452148 287.67037598 55.1875 288 C54.27242676 288.34248779 53.35735352 288.68497559 52.41455078 289.0378418 C9.31461571 304.80746983 -42.38893272 307.2842669 -84.76171875 288.03125 C-114.95126923 273.77712011 -136.49491543 248.71818134 -148.109375 217.5703125 C-154.39495501 199.46127528 -158.08506404 179.78336786 -158.203125 160.58203125 C-158.21013931 159.81060791 -158.21715363 159.03918457 -158.22438049 158.24438477 C-158.24178307 155.76702968 -158.24823326 153.28991398 -158.25 150.8125 C-158.25067474 149.96440765 -158.25134949 149.11631531 -158.25204468 148.24252319 C-158.19736946 104.95048414 -145.93924634 61.78627506 -115.1875 30.09765625 C-85.73710128 0.87506073 -40.11257419 -10.72778147 0 0 Z M-58.3125 75.25 C-70.12024108 87.33233971 -74 101.43121444 -74 118 C-45.95 118 -17.9 118 11 118 C9.79101905 101.07426671 6.95510735 85.87968338 -6 74 C-22.83842435 61.94582638 -41.65302958 62.83272894 -58.3125 75.25 Z " fill="#625AFF" transform="translate(1110,108)"/>
<path d="M0 0 C0.75082855 -0.00067474 1.5016571 -0.00134949 2.27523804 -0.00204468 C28.83113281 0.03566225 58.79200999 3.17725499 82.9375 15.25 C82.9375 41.32 82.9375 67.39 82.9375 94.25 C78.43595553 93.34969111 74.85337975 91.96291671 70.75 90.0625 C45.88458834 78.97499093 10.0398683 67.44923096 -17.0625 76.25 C-20.92108091 77.77582667 -23.52933892 79.51045398 -26 82.9375 C-27.78543269 88.50384898 -28.08098897 93.08571093 -25.5625 98.4375 C-15.14963362 110.15197468 0.97420192 113.94358283 15.32714844 118.97021484 C27.44204391 123.21360575 39.43608361 127.50079447 50.9375 133.25 C51.55286621 133.55437988 52.16823242 133.85875977 52.80224609 134.17236328 C72.44902574 144.08203787 88.03843122 159.72295909 95.15625 180.87109375 C101.98674887 203.92402744 101.28375738 230.64902392 89.9375 252.25 C75.84137597 276.95124942 53.95001298 291.96323889 26.7421875 299.4375 C-0.77931221 306.56198392 -30.1823506 305.94745158 -58.0625 301.25 C-58.86445801 301.12141602 -59.66641602 300.99283203 -60.49267578 300.86035156 C-77.38570739 298.07028583 -94.75868019 292.90190991 -110.0625 285.25 C-110.0625 258.85 -110.0625 232.45 -110.0625 205.25 C-106.26212248 206.51679251 -103.03439815 207.64181953 -99.5078125 209.3515625 C-73.91404221 221.52323222 -47.27535105 230.54512171 -18.6875 230.8125 C-17.58881592 230.82732422 -16.49013184 230.84214844 -15.3581543 230.85742188 C-6.77774979 230.74724012 1.22139568 229.28355454 8 223.75 C11.55494692 219.16297171 12.5202927 215.68562456 12.3671875 209.91015625 C11.44757264 204.21690428 8.31844531 200.1529525 3.875 196.6015625 C1.29884093 194.95665012 -1.31396241 193.58791248 -4.0625 192.25 C-5.58617188 191.5075 -5.58617188 191.5075 -7.140625 190.75 C-15.80216721 186.78171635 -24.70603325 183.5068462 -33.64016724 180.21578979 C-64.42551853 168.85947514 -93.95385805 156.40934765 -108.73828125 124.9765625 C-112.35613029 114.79535901 -113.56562862 105.07900685 -113.4375 94.3125 C-113.42807373 93.08265381 -113.41864746 91.85280762 -113.40893555 90.58569336 C-113.02077936 67.27931143 -104.60339009 45.88315412 -88.0625 29.25 C-64.37978276 6.93124647 -31.57634189 0.02555596 0 0 Z " fill="#625AFF" transform="translate(113.0625,104.75)"/>
<path d="M0 0 C0 24.09 0 48.18 0 73 C20.79 73 41.58 73 63 73 C63 96.43 63 119.86 63 144 C42.21 144 21.42 144 0 144 C0.09065639 166.32821891 0.09065639 166.32821891 0.20898438 188.65625 C0.26340318 197.76593185 0.31481903 206.87555822 0.34643555 215.98535156 C0.36947919 222.62096523 0.4029477 229.25643241 0.44870156 235.89192975 C0.47254844 239.40224733 0.49133286 242.91242061 0.49761391 246.42281723 C0.50483829 250.35088661 0.53534713 254.2785959 0.56762695 258.20654297 C0.56619186 259.358134 0.56475677 260.50972504 0.5632782 261.69621277 C0.68452391 272.16263912 2.43363699 281.33115803 10 289 C17.06807525 294.75104259 25.02490235 296.39199226 34 296.375 C35.08607544 296.37693359 35.08607544 296.37693359 36.1940918 296.37890625 C42.99445903 296.24933338 49.20567513 294.76645672 55.70703125 292.875 C59 292 59 292 63 292 C63 314.44 63 336.88 63 360 C51.37342767 365.81328616 51.37342767 365.81328616 44.875 367.1875 C44.1432959 367.34766602 43.4115918 367.50783203 42.65771484 367.67285156 C12.55827752 374.03891821 -19.28953524 373.89277905 -46 357 C-49.49260707 354.50008333 -52.77047089 351.82988838 -56 349 C-57.03253906 348.11054687 -57.03253906 348.11054687 -58.0859375 347.203125 C-69.28706577 336.84318818 -76.65565258 322.27887795 -80.25 307.625 C-80.41346924 306.96588623 -80.57693848 306.30677246 -80.74536133 305.62768555 C-83.0669532 295.35201038 -83.15303157 284.7131706 -83.08229065 274.22441101 C-83.07906152 273.1148279 -83.07583239 272.0052448 -83.07250541 270.86203796 C-83.06054741 267.18492499 -83.04115156 263.50789105 -83.02172852 259.83081055 C-83.01157327 257.17868096 -83.00183495 254.52655286 -82.99261475 251.87442017 C-82.9720135 246.18553075 -82.94760401 240.49666819 -82.92053413 234.80780602 C-82.88140229 226.58288434 -82.84812849 218.35794696 -82.81623887 210.13299439 C-82.76433059 196.78534015 -82.70774995 183.43771004 -82.64819336 170.09008789 C-82.59038389 157.13176408 -82.53479832 144.17343385 -82.48217773 131.21508789 C-82.47892802 130.41500149 -82.4756783 129.61491508 -82.4723301 128.79058363 C-82.45603923 124.77638686 -82.43979181 120.76218991 -82.42356598 116.74799287 C-82.28911229 83.49863196 -82.14705994 50.24930758 -82 17 C-71.60434427 14.78109057 -61.20822727 12.56435675 -50.81151009 10.35042572 C-45.98429838 9.32242211 -41.15725088 8.29366005 -36.33056641 7.26318359 C-31.67552565 6.26938117 -27.02006972 5.27754631 -22.36431503 4.28709412 C-20.5851017 3.90822395 -18.80604103 3.52863618 -17.02713394 3.14833069 C-14.54208574 2.61718825 -12.05651474 2.08856346 -9.57080078 1.56054688 C-8.82993225 1.40158432 -8.08906372 1.24262177 -7.32574463 1.07884216 C-2.22810432 0 -2.22810432 0 0 0 Z " fill="#625AFF" transform="translate(310,38)"/>
<path d="M0 0 C0 25.74 0 51.48 0 78 C-4.62 77.34 -9.24 76.68 -14 76 C-29.91134535 75.08555486 -44.9894593 78.66555839 -57.1875 89.25 C-61.23359809 93.00492707 -61.23359809 93.00492707 -62.1386652 98.33833504 C-62.15028951 99.81131016 -62.15633399 101.28433496 -62.15821838 102.75735474 C-62.16315636 103.56760695 -62.16809434 104.37785917 -62.17318195 105.21266448 C-62.18860777 107.94271819 -62.19693129 110.67274829 -62.20532227 113.40283203 C-62.2148968 115.35384328 -62.22490662 117.30485243 -62.23532104 119.25585938 C-62.26242222 124.56547561 -62.28340351 129.87510079 -62.30332303 135.18474817 C-62.3251505 140.72880347 -62.352555 146.27283105 -62.37937927 151.81686401 C-62.42935006 162.32115817 -62.47427258 172.82546767 -62.51740164 183.3297919 C-62.56673658 195.28609826 -62.62166856 207.24237683 -62.67708123 219.19865632 C-62.79096859 243.79907959 -62.89705392 268.39952834 -63 293 C-91.05 293 -119.1 293 -148 293 C-148 196.64 -148 100.28 -148 1 C-123.58 1 -99.16 1 -74 1 C-72.35 7.93 -70.7 14.86 -69 22 C-67.88625 20.515 -66.7725 19.03 -65.625 17.5 C-56.78622239 6.53681444 -45.75233385 -0.38811165 -31.74609375 -2.71875 C-20.29240859 -3.89181591 -11.53018424 -2.47075377 0 0 Z " fill="#625AFF" transform="translate(546,110)"/>
<path d="M0 0 C27.72 0 55.44 0 84 0 C84 96.69 84 193.38 84 293 C55.95 293 27.9 293 -1 293 C-1.02202588 255.81794698 -1.04049754 218.63590008 -1.05106533 181.45384241 C-1.05231611 177.06891901 -1.05361042 172.68399564 -1.05493164 168.29907227 C-1.05519395 167.42607506 -1.05545626 166.55307786 -1.05572652 165.6536262 C-1.0600835 151.4990732 -1.06797119 137.34452425 -1.0771528 123.18997366 C-1.08648857 108.67721983 -1.09205545 94.16446812 -1.09408849 79.6517114 C-1.09546388 70.68915187 -1.09981531 61.72660376 -1.10791647 52.76404773 C-1.11318299 46.62667132 -1.11480451 40.48930085 -1.11350138 34.35192234 C-1.11285785 30.80554897 -1.11387716 27.25919563 -1.11920547 23.71282578 C-1.12492678 19.87711086 -1.12300107 16.04142247 -1.12025452 12.20570374 C-1.12316736 11.07245967 -1.1260802 9.93921561 -1.12908131 8.77163082 C-1.12709026 7.75248827 -1.12509921 6.73334571 -1.12304783 5.68332005 C-1.12342755 4.79667307 -1.12380727 3.9100261 -1.1241985 2.99651104 C-1 1 -1 1 0 0 Z " fill="#635BFF" transform="translate(566,110)"/>
<path d="M0 0 C0 22.44 0 44.88 0 68 C-4.51781652 69.50593884 -8.86920093 70.71596203 -13.50244141 71.69580078 C-14.22841019 71.85214996 -14.95437897 72.00849915 -15.7023468 72.16958618 C-18.08468733 72.68164468 -20.4680633 73.18867691 -22.8515625 73.6953125 C-24.51496217 74.05099531 -26.17832218 74.40686362 -27.84164429 74.76290894 C-31.3194036 75.50649033 -34.79769347 76.2475251 -38.27636719 76.98681641 C-42.73402878 77.93442237 -47.19020153 78.88883343 -51.64599037 79.84520149 C-55.07686114 80.58072172 -58.50854038 81.31241055 -61.94047165 82.04296494 C-63.58417467 82.3933878 -65.22761255 82.74505674 -66.87077713 83.09799576 C-69.16515163 83.59025746 -71.46057514 84.07729455 -73.75634766 84.56298828 C-74.43384567 84.70945801 -75.11134369 84.85592773 -75.80937195 85.00683594 C-78.98925051 85.67399968 -81.72422303 86 -85 86 C-85 63.23 -85 40.46 -85 17 C-66.48309969 13.04705401 -66.48309969 13.04705401 -58.58398438 11.36132812 C-53.19616826 10.21152899 -47.80836705 9.06166035 -42.4206543 7.91137695 C-38.0765082 6.98390091 -33.73229554 6.0567373 -29.38803673 5.12978935 C-27.73144854 4.77626079 -26.07488429 4.42262006 -24.4183445 4.06886482 C-22.09642397 3.57303717 -19.77441833 3.07761001 -17.45239258 2.58227539 C-16.76906357 2.43625885 -16.08573456 2.29024231 -15.38169861 2.13980103 C-13.58830874 1.75746882 -11.79418396 1.37858826 -10 1 C-9.1244194 0.80236557 -8.24883881 0.60473114 -7.34672546 0.40110779 C-5 0 -5 0 0 0 Z " fill="#625AFF" transform="translate(650,0)"/>
</svg>
